<svg width="48" height="48" viewBox="0 0 48 48" fill="none" xmlns="http://www.w3.org/2000/svg">
    <g filter="url(#filter0_d)">
        <path
            d="M34 0H14C8.47715 0 4 4.47715 4 10V30C4 35.5228 8.47715 40 14 40H34C39.5228 40 44 35.5228 44 30V10C44 4.47715 39.5228 0 34 0Z"
            fill="black" />
        <path
            d="M28.2002 32.7C33.5002 30.9 37.3002 25.9 37.3002 20C37.3002 12.6 31.3002 6.70001 24.0002 6.70001C16.7002 6.70001 10.7002 12.6 10.7002 20C10.7002 25.9 14.5002 30.9 19.8002 32.7C20.5002 32.8 20.7002 32.4 20.7002 32.1V29.6C17.0002 30.3 16.2002 28 16.2002 28C15.6002 26.5 14.7002 26 14.7002 26C13.5002 25.2 14.8002 25.2 14.8002 25.2C16.1002 25.3 16.8002 26.6 16.8002 26.6C18.0002 28.6 19.9002 28.1 20.7002 27.7C20.8002 26.8 21.2002 26.2 21.5002 25.9C18.5002 25.6 15.4002 24.4 15.4002 19.3C15.4002 17.8 15.9002 16.7 16.8002 15.7C16.7002 15.4 16.2002 14 16.9002 12.2C16.9002 12.2 18.0002 11.8 20.6002 13.6C21.7002 13.3 22.8002 13.2 23.9002 13.2C25.0002 13.2 26.2002 13.4 27.2002 13.7C29.7002 12 30.9002 12.3 30.9002 12.3C31.6002 14.1 31.2002 15.5 31.0002 15.8C31.9002 16.7 32.4002 17.9 32.4002 19.4C32.4002 24.5 29.3002 25.6 26.3002 26C26.8002 26.4 27.2002 27.2 27.2002 28.5V32C27.3002 32.4 27.5002 32.8 28.2002 32.7Z"
            fill="white" />
    </g>
    <defs>
        <filter id="filter0_d" x="0" y="0" width="48" height="48" filterUnits="userSpaceOnUse"
            color-interpolation-filters="sRGB">
            <feFlood flood-opacity="0" result="BackgroundImageFix" />
            <feColorMatrix in="SourceAlpha" type="matrix" values="0 0 0 0 0 0 0 0 0 0 0 0 0 0 0 0 0 0 127 0" />
            <feOffset dy="4" />
            <feGaussianBlur stdDeviation="2" />
            <feColorMatrix type="matrix" values="0 0 0 0 0 0 0 0 0 0 0 0 0 0 0 0 0 0 0.25 0" />
            <feBlend mode="normal" in2="BackgroundImageFix" result="effect1_dropShadow" />
            <feBlend mode="normal" in="SourceGraphic" in2="effect1_dropShadow" result="shape" />
        </filter>
    </defs>
</svg>