<svg fill="none" viewBox="0 0 236 162" xmlns="http://www.w3.org/2000/svg">
    <path
        d="M62.1325 131.285C62.1325 131.285 63.0303 133.202 65.0914 133.341C67.1525 133.479 76.5601 132.776 80.4338 138.318V141.085C80.4338 141.085 65.0914 150.764 39.918 149.798C14.7445 148.833 -1.56905 143.107 1.3334 140.574C1.3334 140.574 0.367798 139.01 4.10033 136.661C7.83287 134.312 11.7066 133.617 12.1216 134.032C12.5366 134.447 13.9201 134.447 13.9201 135.831"
        stroke="#231F20" stroke-width="1.97638" stroke-miterlimit="10" />
    <path
        d="M79.8834 141.003C79.1832 141.78 78.8387 142.734 78.5536 143.725C78.4325 144.204 78.2826 144.676 78.1047 145.137C77.8989 145.593 77.6612 146.033 77.3932 146.455C76.8482 147.373 76.3485 148.296 76.2243 149.372C76.1508 149.868 76.1934 150.375 76.3487 150.852C76.504 151.329 76.7678 151.764 77.1193 152.122C77.5541 152.537 78.116 152.385 78.4491 151.953L78.5395 151.834L77.0769 150.987C77.0389 151.073 76.9946 151.156 76.9442 151.235C76.8821 151.334 76.8172 151.43 76.7466 151.518L76.6873 151.597C76.58 151.749 76.8313 151.425 76.7353 151.538C76.6788 151.602 76.628 151.673 76.5716 151.738C76.2654 152.092 75.9332 152.422 75.5777 152.726C75.4648 152.828 75.3462 152.927 75.2276 153.023C75.1683 153.068 75.109 153.113 75.0526 153.161C74.9961 153.209 75.2474 153.014 75.1034 153.121L74.9904 153.206C74.7081 153.426 74.3919 153.632 74.0841 153.833C73.3056 154.329 72.4965 154.776 71.6617 155.171L70.9248 155.51L70.5323 155.679C70.7045 155.603 70.569 155.662 70.4843 155.699L70.2782 155.784C69.6796 156.027 69.0754 156.25 68.4627 156.462C65.2161 157.539 61.8797 158.324 58.4933 158.808C53.4426 159.535 48.3495 159.929 43.247 159.988C37.7837 160.129 32.317 159.897 26.8854 159.293C23.1325 158.872 19.4248 158.116 15.8064 157.035C15.109 156.82 14.4144 156.589 13.7283 156.337C13.4121 156.222 13.0959 156.1 12.7825 155.979L12.3336 155.795L12.1416 155.716C12.0032 155.66 12.1613 155.716 12.1811 155.733L12.023 155.665C11.0119 155.233 10.0268 154.743 9.07254 154.197C8.32994 153.77 7.61341 153.298 6.92676 152.785C6.71783 152.627 7.05664 152.89 6.87312 152.743L6.65854 152.571C6.53243 152.469 6.4082 152.365 6.28585 152.257C6.06562 152.068 5.85387 151.873 5.65058 151.67C5.36824 151.388 5.10567 151.046 4.82333 150.744C5.07461 151.012 4.88262 150.823 4.82333 150.744L4.71886 150.594C4.67651 150.532 4.63698 150.465 4.59463 150.4C4.55228 150.335 4.56922 150.355 4.55793 150.332C4.50673 150.228 4.43466 150.135 4.34619 150.06C4.25772 149.985 4.15474 149.929 4.04364 149.895C3.93254 149.861 3.81569 149.851 3.70036 149.864C3.58503 149.877 3.47367 149.914 3.3732 149.972C3.27274 150.031 3.1853 150.109 3.11633 150.202C3.04736 150.296 2.99833 150.402 2.97228 150.515C2.94623 150.628 2.94372 150.746 2.9649 150.86C2.98608 150.974 3.0305 151.083 3.09541 151.179C3.33949 151.611 3.63738 152.01 3.98195 152.368C4.89087 153.357 5.92552 154.222 7.05946 154.943C8.99853 156.186 11.0766 157.198 13.2512 157.958C16.5496 159.13 19.9535 159.981 23.4154 160.499C28.506 161.278 33.6475 161.677 38.7973 161.693C44.3952 161.778 49.9929 161.509 55.557 160.889C59.4134 160.479 63.2289 159.748 66.9635 158.703C69.3659 158.04 71.6861 157.109 73.8809 155.928C75.1524 155.247 76.3223 154.392 77.3565 153.387C77.8131 152.954 78.2015 152.454 78.5084 151.905C78.5199 151.883 78.5303 151.862 78.5395 151.84C78.6341 151.647 78.6521 151.426 78.5898 151.22C78.5274 151.015 78.3895 150.841 78.2037 150.733C78.018 150.626 77.7984 150.593 77.5892 150.641C77.38 150.689 77.1969 150.815 77.0769 150.993L76.9866 151.111L78.3192 150.939C77.859 150.501 77.8138 149.849 77.9578 149.245C78.1555 148.378 78.6919 147.638 79.1267 146.879C79.5653 146.088 79.9048 145.246 80.1375 144.372C80.3521 143.624 80.5469 142.819 81.0833 142.226C81.8118 141.418 80.6175 140.216 79.8834 141.029V141.003Z"
        fill="#231F20" />
    <path
        d="M97.5603 55.0394L97.5208 55.6549C97.5184 55.9667 97.5824 56.2755 97.7085 56.5608C97.8346 56.846 98.0199 57.1012 98.2521 57.3094C98.7377 57.7687 99.1866 57.9992 99.5988 58.0011C102.673 58.0011 105.396 57.54 107.77 56.6177C110.143 55.6953 111.33 54.7721 111.33 53.8479C111.33 53.4103 110.898 53.0319 110.04 52.7185C108.615 52.239 107.164 51.8403 105.695 51.5242C103.656 51.0499 102.175 50.6782 101.251 50.409C100.507 50.2014 99.7751 49.9516 99.0596 49.6608C98.4737 49.403 97.9187 49.08 97.4051 48.698C96.2004 47.851 95.5981 46.588 95.5981 44.909C95.5981 43.23 96.2192 41.5633 97.4615 39.9088C98.7421 38.2166 100.322 36.7735 102.123 35.6511C104.046 34.4488 106.066 33.4099 108.162 32.5454C112.416 30.7779 115.992 29.8932 118.891 29.8914C121.737 29.8914 123.494 30.5069 124.162 31.7379C124.371 32.1968 124.477 32.6962 124.47 33.2004V33.4827C124.47 34.8436 124.181 35.908 123.603 36.676C123.026 37.444 122.115 38.1366 120.873 38.754C119.627 39.3695 118.64 39.6773 117.911 39.6773C117.18 39.6773 116.72 39.6264 116.528 39.522C116.34 39.4241 116.175 39.2863 116.045 39.1182C115.922 38.9549 115.756 38.8288 115.565 38.754C115.373 38.6778 115.283 38.4717 115.283 38.1893C115.298 37.841 115.434 37.5087 115.667 37.2491C115.912 36.9482 116.095 36.6019 116.206 36.2299C114.385 36.3334 112.593 36.729 110.898 37.4016C109.233 38.0159 107.64 38.8092 106.146 39.7676C104.988 40.515 103.89 41.3504 102.86 42.2663C101.988 43.0625 101.552 43.646 101.55 44.0168C101.548 44.3876 102.138 44.6888 103.32 44.9203C108.628 45.9744 112.116 46.8854 113.784 47.6534C115.451 48.4213 116.605 49.2928 117.245 50.2678C117.883 51.241 118.203 52.1256 118.205 52.9218C118.205 54.5613 117.546 56.1123 116.229 57.5748C114.867 59.0627 113.224 60.266 111.395 61.1153C107.265 63.1501 103.668 64.1674 100.604 64.1674C97.5396 64.1674 95.424 63.6969 94.257 62.7557C93.0881 61.8146 92.5046 60.7059 92.5065 59.4298C92.4991 58.1763 92.8382 56.9452 93.4862 55.8723C94.1412 54.7824 94.9816 54.2375 96.0075 54.2375C97.0333 54.2375 97.5509 54.5048 97.5603 55.0394Z"
        fill="#231F20" />
    <path
        d="M151.626 33.4996C153.574 33.4996 154.548 34.166 154.548 35.4986C154.548 36.2176 154.381 36.7437 154.048 37.0769C153.715 37.4101 153.003 38.5187 151.914 40.4029C150.824 42.2851 149.618 44.6954 148.297 47.6336C146.975 50.5718 146.123 53.079 145.739 55.1551C145.651 55.5067 145.612 55.8687 145.623 56.2308C145.623 57.6425 146.01 58.3484 146.778 58.3484C147.546 58.3484 148.458 57.9813 149.508 57.2501C150.521 56.5582 151.466 55.7727 152.331 54.9038C153.15 54.07 153.951 53.2173 154.734 52.3458C155.517 51.4743 155.988 50.9746 156.146 50.8466C156.348 50.7049 156.594 50.6371 156.84 50.6546C157.326 50.6546 157.622 51.0273 157.724 51.7699C157.828 52.5344 157.88 53.305 157.879 54.0766C157.879 54.8728 157.8 55.4233 157.648 55.7311C156.895 57.1936 155.26 58.9498 152.744 60.9996C150.227 63.0493 147.926 64.0752 145.84 64.0771C143.77 64.0771 142.251 63.4493 141.283 62.1939C140.335 61.0102 139.819 59.5379 139.821 58.0209C139.791 56.6427 140.051 55.2737 140.586 54.0032C138.52 56.7123 136.049 59.0865 133.259 61.0419C130.5 62.9637 128.25 63.9255 126.509 63.9274C124.768 63.9293 123.345 63.4032 122.24 62.3491C120.828 61.0428 120.122 59.2293 120.122 56.9085C120.143 54.4908 120.674 52.1048 121.681 49.9064C122.713 47.57 124.094 45.4042 125.777 43.4832C127.467 41.5495 129.334 39.7781 131.354 38.1921C135.611 34.8605 139.535 33.1938 143.124 33.1919C144.508 33.1919 145.637 33.4225 146.512 33.8836C147.382 34.3467 147.924 34.9226 148.167 35.6144C148.78 34.6911 149.296 34.1095 149.723 33.8639C150.149 33.6182 150.779 33.4996 151.626 33.4996ZM146.51 37.7686C142.126 37.7686 137.587 40.2052 132.892 45.0784C131.113 46.9744 129.569 49.079 128.296 51.3464C126.897 53.7839 126.199 55.4506 126.201 56.3466C126.201 57.2444 126.455 57.6934 126.969 57.6934C127.686 57.6934 129.686 56.2769 132.969 53.4441C136.251 50.6113 138.431 48.5277 139.508 47.1931C140.688 45.7099 143.022 42.5684 146.51 37.7686Z"
        fill="#231F20" />
    <path
        d="M174.433 56.8096C174.433 57.939 175.202 58.5037 176.74 58.5037C177.563 58.5037 178.598 58.0933 179.846 57.2727C181.049 56.481 182.173 55.5752 183.203 54.5679C185.87 51.9327 187.383 50.6151 187.743 50.6151C188.409 50.6151 188.742 51.5769 188.742 53.5006C188.742 55.4243 188.14 56.7419 186.935 57.4534C183.267 60.7624 180.433 62.7755 178.434 63.4926C177.231 63.8881 175.968 64.0706 174.702 64.0319C173.343 64.0055 171.997 63.4154 170.664 62.2616C170.035 61.7551 169.529 61.1133 169.183 60.3839C168.837 59.6545 168.66 58.8564 168.665 58.0491C168.665 56.3965 169.101 54.5189 169.972 52.4164C170.725 50.5496 171.619 48.743 172.646 47.0124C173.555 45.5066 174.677 43.7627 176.012 41.7807C177.346 39.7987 178.051 38.5611 178.126 38.0679L178.05 37.9917C177.203 38.0688 175.106 39.7356 171.76 42.9919C168.413 46.2482 165.651 49.082 163.473 51.4932C161.29 53.9025 158.686 57.1202 155.663 61.1464C154.816 62.2513 154.124 62.8028 153.585 62.8009C152.837 62.7524 152.103 62.5767 151.414 62.2814C150.832 62.0885 150.271 61.8369 149.74 61.5304C149.636 61.4492 149.553 61.3436 149.5 61.2229C149.446 61.1023 149.423 60.9703 149.432 60.8386C149.452 60.449 149.543 60.0663 149.7 59.7093C149.849 59.3221 150.023 58.9449 150.22 58.5799C150.387 58.2976 150.663 57.8289 151.047 57.2162C151.431 56.6035 152.196 55.2991 153.337 53.3114C154.478 51.3238 156.228 48.3564 158.586 44.4064C160.943 40.4565 162.355 38.0736 162.821 37.2519C163.529 35.9671 164.327 34.7331 165.207 33.5589C166.359 32.0983 168.307 31.368 171.051 31.368C171.666 31.368 171.974 31.752 171.974 32.5199C171.974 33.7265 170.859 35.9965 168.629 39.33L167.016 41.7694C171.453 36.8454 175.197 33.7302 178.248 32.4239C179.507 31.8352 180.873 31.5077 182.263 31.4612C183.458 31.4612 184.407 31.7821 185.109 32.4239C185.811 33.0658 186.164 33.7773 186.167 34.5584C186.167 35.3414 185.898 36.2769 185.36 37.3649C184.869 38.3689 184.323 39.3453 183.725 40.2899C183.176 41.1482 182.451 42.2315 181.551 43.5397C180.651 44.8478 180.165 45.5593 180.092 45.6741C180.012 45.7899 179.809 46.0977 179.493 46.5974C179.177 47.0971 178.928 47.4614 178.784 47.6929C178.64 47.9244 178.372 48.3281 178.013 48.9041C177.655 49.4801 177.367 49.9629 177.15 50.3469L176.339 51.7586C176.02 52.3232 175.775 52.8089 175.571 53.2211C175.368 53.6333 175.179 54.0681 174.976 54.565C174.659 55.2736 174.475 56.0345 174.433 56.8096V56.8096Z"
        fill="#231F20" />
    <path
        d="M234.588 5.53671C234.845 5.7852 234.997 6.12275 235.012 6.47973C235.012 6.79783 234.762 7.38698 234.264 8.24718C233.765 9.10737 232.619 10.9793 230.825 13.8629C229.031 16.7484 227.634 19.0072 226.635 20.6391C220.813 30.0993 216.248 38.099 212.941 44.638C209.634 51.177 207.98 55.1297 207.978 56.4962V56.804C207.978 57.8543 208.365 58.3795 209.133 58.3795C209.901 58.3795 210.827 58.0209 211.922 57.3037C212.953 56.6332 213.913 55.8593 214.788 54.9942C215.607 54.1754 216.433 53.3227 217.267 52.4362C218.1 51.5525 218.608 51.0245 218.786 50.8805C218.981 50.7207 219.228 50.6383 219.48 50.649C219.915 50.649 220.197 50.9313 220.327 51.4762C220.475 52.2359 220.54 53.0094 220.519 53.783C220.519 54.7712 220.443 55.4187 220.291 55.7255C219.538 57.1616 217.903 58.9121 215.386 60.977C212.87 63.0418 210.478 64.0771 208.212 64.0827C204.367 64.0827 202.444 62.4546 202.444 59.1982C202.444 57.1748 203.213 54.5208 204.751 51.2363C202.859 53.7287 200.734 56.0346 198.404 58.1225C194.404 61.6104 190.929 63.3543 187.98 63.3543C186.338 63.3543 185.127 62.7764 184.346 61.6207C183.565 60.465 183.173 58.8048 183.171 56.6402C183.171 54.4738 184.018 51.8781 185.712 48.8533C187.401 45.8235 189.534 43.0636 192.04 40.6654C194.543 38.2564 197.371 36.2102 200.442 34.5867C203.52 32.9604 206.353 32.1463 208.943 32.1444C209.766 32.1444 210.728 32.6451 211.829 33.6465C212.571 32.4663 213.942 30.1069 215.943 26.5682C222.226 15.9767 226.38 9.51488 228.405 7.18275C229.484 5.77294 231.164 5.06803 233.445 5.06803C233.658 5.05948 233.87 5.09691 234.068 5.17778C234.265 5.25866 234.443 5.38107 234.588 5.53671V5.53671ZM209.46 37.2689C205.667 38.1444 202.138 39.9128 199.166 42.4272C195.985 45.0417 193.6 47.7785 192.011 50.6377C190.423 53.4969 189.628 55.3499 189.626 56.197C189.626 57.0421 189.805 57.4647 190.165 57.4647C191.705 57.4647 195.512 54.0286 201.588 47.1564C204.414 44.0228 207.048 40.7209 209.474 37.2689H209.46Z"
        fill="#231F20" />
    <path
        d="M118.335 121.954C119.217 121.414 120.07 120.829 120.893 120.203C121.27 119.885 121.719 119.509 122.24 119.074C122.761 118.639 123.184 118.421 123.508 118.419C124.022 118.419 124.278 119.003 124.278 120.17C124.278 121.337 123.707 122.593 122.565 123.939C121.373 125.328 119.938 126.488 118.33 127.361C116.59 128.319 114.776 129.136 112.906 129.803C109.075 131.22 105.821 131.929 103.142 131.929C100.49 131.937 97.9205 131.004 95.892 129.295C93.7387 127.539 92.6611 125.243 92.6592 122.409C92.6901 119.448 93.4154 116.536 94.7767 113.907C96.1493 111.126 97.9897 108.602 100.217 106.445C102.478 104.278 105.093 102.515 107.951 101.233C110.676 99.9476 113.647 99.2658 116.661 99.234C118.001 99.2199 119.31 99.6377 120.393 100.426C120.921 100.788 121.348 101.278 121.637 101.849C121.925 102.421 122.066 103.055 122.045 103.695C122.045 105.082 121.36 106.743 119.99 108.678C118.619 110.613 117.228 111.581 115.817 111.581C114.173 111.581 113.353 110.799 113.355 109.235C113.355 108.824 113.739 108.094 114.507 107.044C115.275 105.993 115.66 105.281 115.661 104.906C115.661 104.536 115.52 104.342 115.238 104.342C113.828 104.342 112.316 104.829 110.701 105.804C109.161 106.723 107.69 107.751 106.296 108.879C104.95 109.981 103.696 111.19 102.547 112.496C99.9755 115.39 98.69 118.402 98.69 121.53C98.6677 122.729 99.1006 123.891 99.9012 124.783C100.712 125.692 102.071 126.147 103.978 126.147C105.915 126.144 107.845 125.919 109.729 125.475C111.357 125.124 112.953 124.639 114.501 124.023C115.835 123.443 117.118 122.751 118.335 121.954V121.954Z"
        fill="#231F20" />
    <path
        d="M157.182 73.8574C158.123 74.5858 158.594 75.669 158.594 77.1071C158.594 78.5451 157.799 80.7954 156.211 83.8578C154.503 87.1094 152.586 90.2462 150.471 93.2485C148.24 96.4389 145.714 99.827 142.893 103.413C138.432 109.105 134.15 114.221 130.046 118.761C129.971 119.337 129.862 119.908 129.719 120.472C129.529 121.298 129.435 122.143 129.436 122.99C129.436 123.837 129.828 124.6 130.611 125.28C131.418 125.968 132.453 126.331 133.513 126.299C134.667 126.299 135.905 125.889 137.226 125.068C138.478 124.297 139.631 123.377 140.662 122.329C143.226 119.694 144.816 118.377 145.431 118.377C146.047 118.377 146.354 119.318 146.354 121.2V121.968C146.354 122.968 146.175 123.699 145.818 124.162C143.663 126.797 141.239 128.765 138.548 130.066C135.856 131.366 133.305 132.014 130.893 132.008C128.482 132.008 126.649 131.271 125.393 129.797C124.138 128.324 123.509 126.304 123.507 123.738C123.507 118.737 124.847 112.859 127.528 106.103C130.208 99.3479 133.227 93.5976 136.585 88.8524C144.148 78.1348 149.931 72.775 153.932 72.7732C155.108 72.7513 156.255 73.1341 157.182 73.8574V73.8574ZM152.202 79.1456C152.202 78.7616 152.072 78.5668 151.818 78.5668C150.92 78.5668 148.56 81.1314 144.739 86.2605C140.918 91.3897 138.155 95.4799 136.45 98.531C134.744 101.582 133.136 105.415 131.625 110.031C134.649 106.443 138.836 100.847 144.183 93.2428C149.531 85.6385 152.203 80.9394 152.202 79.1456Z"
        fill="#231F20" />
    <path
        d="M168.473 101.185C169.241 101.185 170.029 101.531 170.836 102.224C171.644 102.917 172.047 103.972 172.047 105.389C172.047 106.812 171.548 108.658 170.548 110.926C169.439 113.38 168.059 115.702 166.432 117.849C164.687 120.198 162.765 122.411 160.683 124.467C158.674 126.471 156.393 128.181 153.907 129.549C151.485 130.866 149.286 131.525 147.312 131.525C145.337 131.525 143.755 130.907 142.566 129.67C141.374 128.424 140.778 126.693 140.778 124.478C140.778 122.263 141.323 119.807 142.413 117.112C143.437 114.529 144.859 112.122 146.626 109.977C148.305 107.952 150.172 106.091 152.202 104.418C156.38 101.062 160.051 99.3827 163.213 99.3809C164.625 99.3809 165.686 99.7253 166.406 100.417C166.508 100.489 166.595 100.58 166.661 100.686C166.727 100.792 166.771 100.909 166.79 101.033V101.264C167.349 101.202 167.911 101.176 168.473 101.185V101.185ZM164.588 106.301H164.306C163.408 106.301 162.959 105.642 162.959 104.325C161.086 104.94 159.125 106.017 157.075 107.555C155 109.116 153.15 110.954 151.575 113.018C148.29 117.221 146.624 120.772 146.575 123.671C146.575 125.107 147.101 125.825 148.153 125.825C149.205 125.825 150.769 125.133 152.846 123.75C154.916 122.362 156.973 120.386 159.017 117.82C161.062 115.255 162.587 113.03 163.594 111.146C164.609 109.264 165.115 107.982 165.113 107.3C165.124 106.64 164.947 106.301 164.588 106.301Z"
        fill="#231F20" />
    <path
        d="M196.224 121.954C197.1 121.413 197.948 120.829 198.765 120.203C199.153 119.885 199.602 119.509 200.112 119.074C200.622 118.639 201.046 118.421 201.383 118.419C201.895 118.419 202.151 119.003 202.151 120.17C202.151 121.337 201.58 122.593 200.44 123.939C199.248 125.328 197.813 126.488 196.205 127.361C194.465 128.318 192.651 129.135 190.781 129.803C186.958 131.215 183.707 131.921 181.029 131.921C178.38 131.926 175.816 130.992 173.792 129.283C171.639 127.527 170.561 125.232 170.56 122.397C170.588 119.438 171.308 116.527 172.663 113.896C175.437 108.26 180.098 103.776 185.837 101.222C188.564 99.9366 191.536 99.2548 194.55 99.2228C195.889 99.2087 197.197 99.6265 198.28 100.414C198.809 100.778 199.239 101.269 199.528 101.842C199.817 102.416 199.957 103.053 199.934 103.695C199.934 105.082 199.248 106.743 197.876 108.678C196.504 110.613 195.113 111.581 193.703 111.581C192.064 111.581 191.243 110.799 191.241 109.235C191.241 108.825 191.628 108.105 192.396 107.044C193.164 105.982 193.551 105.279 193.551 104.906C193.551 104.534 193.409 104.342 193.127 104.342C191.715 104.342 190.202 104.829 188.587 105.804C187.049 106.725 185.577 107.752 184.182 108.879C182.838 109.982 181.584 111.191 180.433 112.496C177.869 115.392 176.588 118.404 176.588 121.53C176.565 122.729 176.998 123.891 177.799 124.783C178.606 125.692 179.965 126.147 181.876 126.147C183.812 126.144 185.742 125.919 187.627 125.475C189.247 125.123 190.836 124.638 192.376 124.023C193.715 123.444 195.003 122.752 196.224 121.954V121.954Z"
        fill="#231F20" />
    <path
        d="M200.55 131.418L198.088 130.879C197.346 130.803 196.73 130.333 196.241 129.467C196.114 129.235 196.029 129.094 195.993 129.043C195.952 128.988 195.931 128.92 195.933 128.851C195.941 128.739 195.968 128.628 196.012 128.524C196.063 128.383 196.139 128.195 196.241 127.959C196.348 127.714 196.442 127.463 196.523 127.208C197.06 125.386 201.559 116.822 210.022 101.515C218.485 86.2088 222.915 78.3174 223.312 77.8411C223.709 77.3668 224.004 77.0205 224.196 76.8021C224.386 76.5839 224.607 76.3938 224.851 76.2374C225.023 76.1225 225.203 76.0196 225.39 75.9297C225.506 75.8761 225.734 75.7942 226.082 75.6784L227.157 75.3142C227.561 75.1706 227.954 74.997 228.332 74.7947C228.741 74.5745 229.024 74.422 229.179 74.3317C229.362 74.2338 229.567 74.187 229.775 74.1961C229.908 74.2023 230.038 74.2364 230.157 74.2962C230.277 74.3561 230.382 74.4403 230.466 74.5434C230.688 74.7834 230.805 75.1009 230.794 75.4271V75.7095C230.664 76.1951 227.324 82.272 220.774 93.9402C214.223 105.608 210.649 111.985 210.05 113.069C212.042 112.278 214.99 110.317 218.896 107.185C222.802 104.053 224.77 101.976 224.8 100.953C224.839 99.9286 225.192 99.1832 225.859 98.723C226.493 98.2712 227.253 98.0293 228.033 98.0313C228.401 98.0239 228.768 98.0897 229.111 98.225C229.454 98.3602 229.767 98.5621 230.032 98.819C230.581 99.3442 230.844 100.203 230.819 101.397C230.795 102.59 230.128 104.103 228.82 105.934C227.469 107.819 225.893 109.532 224.128 111.036C220.203 114.371 216.934 116.577 214.319 117.654C216.39 123.267 218.775 126.074 221.474 126.076C222.936 125.869 224.731 124.677 226.858 122.499C227.654 121.705 228.424 120.904 229.168 120.096C229.91 119.289 230.365 118.806 230.531 118.653C230.73 118.488 230.985 118.405 231.243 118.422C231.731 118.422 232.025 118.795 232.129 119.551C232.232 120.316 232.283 121.086 232.282 121.858C232.282 122.654 232.205 123.206 232.05 123.512C231.307 124.95 229.679 126.701 227.166 128.764C224.653 130.827 222.268 131.862 220.011 131.87C218.396 131.87 217.114 131.562 216.166 130.946C215.217 130.331 214.474 129.818 213.935 129.408C213.318 128.92 212.762 128.359 212.281 127.736L210.869 125.986C210.398 125.378 209.973 124.735 209.599 124.063C209.124 123.241 208.785 122.651 208.579 122.313C208.373 121.974 208.074 121.403 207.676 120.618C207.278 119.834 207.055 119.404 207.004 119.328C206.541 120.269 206.028 121.295 205.465 122.406C204.902 123.516 204.389 124.542 203.926 125.483C203.463 126.432 203.043 127.299 202.656 128.081C202.269 128.863 201.958 129.509 201.716 130.02C201.473 130.531 201.334 130.802 201.312 130.831C201.14 131.212 200.897 131.418 200.55 131.418Z"
        fill="#231F20" />
    <path
        d="M53.6766 1.96509C53.6766 1.96509 64.877 11.0931 64.877 28.1041C64.877 43.5255 50.5511 60.6043 44.6332 70.1502C44.1063 70.9997 43.8108 71.9722 43.7761 72.9713C43.7415 73.9703 43.9688 74.961 44.4356 75.845C45.757 78.3521 48.315 82.5223 53.1571 88.6745C61.9859 99.8749 66.1221 114.811 64.877 123.741C63.6319 132.672 54.0916 142.618 49.114 142.824C49.114 142.824 44.5401 143.739 42.3209 143.739C42.0239 143.749 41.7269 143.72 41.4372 143.655C41.1484 143.721 40.8523 143.749 40.5563 143.739C38.3342 143.739 33.7632 142.824 33.7632 142.824C28.7855 142.618 19.2424 132.66 17.9973 123.741C16.7522 114.822 20.9026 99.8862 29.7172 88.6858C34.5594 82.5336 37.1174 78.3634 38.4415 75.8563C38.9083 74.9723 39.1357 73.9816 39.101 72.9826C39.0663 71.9835 38.7708 71.0109 38.2439 70.1615C32.3148 60.6156 17.9973 43.5368 17.9973 28.1154C17.9973 11.1044 29.2005 1.97638 29.2005 1.97638H53.6766V1.96509ZM54.3796 0H28.4975L27.9526 0.446095C27.8256 0.547738 24.8695 2.98715 21.9303 7.60624C18.0487 13.7409 15.9986 20.8559 16.0209 28.1154C16.0209 41.103 25.4398 54.8248 32.3148 64.8365C33.9128 67.163 35.4205 69.354 36.564 71.2033C36.9078 71.7601 37.1006 72.3969 37.1233 73.0509C37.1461 73.705 36.9981 74.3536 36.6938 74.933C35.4572 77.2736 32.9783 81.3478 28.1644 87.4633C23.7411 93.1573 20.3672 99.5934 18.2006 106.47C16.1367 112.964 15.3772 119.204 16.0407 124.015C17.3874 133.663 27.371 144.343 33.5119 144.79C34.4041 144.965 38.354 145.716 40.5563 145.716C40.8507 145.718 41.1449 145.701 41.4372 145.665C41.7303 145.701 42.0255 145.718 42.3209 145.716C44.5203 145.716 48.4731 144.965 49.3794 144.79C55.5203 144.346 65.5038 133.663 66.8506 124.015C67.5197 119.215 66.7546 112.975 64.6879 106.47C62.5234 99.5931 59.1503 93.1567 54.7269 87.4633C49.913 81.3478 47.4312 77.2736 46.1974 74.933C45.8932 74.3536 45.7451 73.705 45.7679 73.0509C45.7907 72.3969 45.9835 71.7601 46.3273 71.2033C47.4566 69.3625 48.9785 67.163 50.5765 64.8365C57.4515 54.8248 66.8675 41.12 66.8675 28.1154C66.8891 20.8564 64.8401 13.7418 60.961 7.60624C58.0218 2.98151 55.0629 0.547738 54.9387 0.446095L54.3937 0H54.3796Z"
        fill="#231F20" />
    <path
        d="M41.152 100.166C40.968 103.722 41.3784 107.284 42.3661 110.705C42.8546 112.4 40.353 113.331 38.8961 114.319C35.5504 116.592 32.8484 119.766 29.3192 121.739C27.8594 122.554 26.2865 123.147 24.6521 123.498C23.3759 123.781 22.0292 123.913 21.0099 124.82C20.5668 125.197 20.2799 125.725 20.2052 126.302C20.0782 127.561 21.0833 128.278 22.0489 128.755C25.2676 130.37 28.955 130.757 32.5463 130.963C36.9028 131.215 41.2678 131.333 45.63 131.232C46.311 131.225 46.9901 131.16 47.66 131.037C48.5804 130.859 49.467 130.526 50.393 130.37C51.8894 130.122 53.4367 130.348 54.9105 130.051C56.0935 129.814 57.2144 129.25 58.4228 129.204C59.5521 129.159 60.8509 129.54 61.6866 128.665C61.9379 128.386 62.1016 128.04 62.1573 127.669C62.213 127.298 62.1583 126.919 62 126.579C61.4128 125.229 60.0236 124.704 58.7164 124.359C57.6492 124.077 56.5339 123.868 55.6107 123.256C54.8342 122.733 54.2696 121.962 53.6343 121.279C51.5196 118.992 48.5917 117.609 46.3951 115.39C44.9326 113.924 43.8286 112.131 42.3548 110.677"
        stroke="#231F20" stroke-width="1.4117" stroke-miterlimit="10" />
    <path
        d="M41.2366 81.7148C41.2789 79.6678 41.1632 77.8355 41.0926 75.7857C41.0986 74.7791 40.9694 73.7763 40.7086 72.8042C40.4144 71.9748 40.028 71.1812 39.5566 70.4381C38.5967 68.7865 37.2076 67.5188 36.3747 65.7993C35.5374 64.066 34.5661 62.4008 33.4694 60.8188C32.3654 59.2349 31.1429 57.7385 29.9571 56.2139C29.5477 55.6831 29.3924 54.9377 29.1355 54.325L28.0456 51.8602C27.8536 51.4226 27.6532 50.9398 28.0767 50.4711C28.2135 50.3213 28.388 50.2111 28.5821 50.152C29.1948 49.9657 29.7933 50.1774 30.3778 50.3581C36.6796 52.3345 43.4586 51.0216 50.0484 50.6405C50.7938 50.5981 51.5674 50.5727 52.2506 50.8663C52.9339 51.16 53.4958 51.8743 53.38 52.6084C52.3058 53.4604 51.0738 54.0918 49.7548 54.4662C48.7161 54.7365 47.6578 54.9253 46.5897 55.0309C44.063 55.3037 41.5218 55.4215 38.9807 55.3838C36.129 55.3047 34.7653 54.7259 32.0295 53.9184C34.3305 53.3199 36.8575 52.278 39.1952 52.7185C43.8934 53.6022 48.679 55.1269 53.2699 53.7999C53.4219 53.7515 53.5847 53.7487 53.7383 53.7918C53.8918 53.835 54.0293 53.9222 54.1339 54.0427C54.5122 54.5085 54.0774 55.0224 53.7047 55.381C52.1123 56.9197 50.9152 58.8255 49.5966 60.5817L46.5813 64.7942C45.1893 66.7931 43.6167 68.7469 42.6511 71.0057C40.8893 75.1363 40.9119 80.2297 41.646 84.5326"
        stroke="#231F20" stroke-width="1.4117" stroke-miterlimit="10" />
    <path
        d="M41.9567 87.1358C43.0465 87.1358 43.0494 85.4417 41.9567 85.4417C40.864 85.4417 40.864 87.1358 41.9567 87.1358Z"
        fill="#231F20" />
    <path
        d="M42.9927 89.8321C44.0854 89.8321 44.0854 88.1381 42.9927 88.1381C41.9001 88.1381 41.9029 89.8321 42.9927 89.8321Z"
        fill="#231F20" />
    <path
        d="M42.5806 93.048C43.6705 93.048 43.6705 91.3539 42.5806 91.3539C41.4908 91.3539 41.488 93.048 42.5806 93.048Z"
        fill="#231F20" />
    <path
        d="M41.5417 95.9504C42.6315 95.9504 42.6343 94.2563 41.5417 94.2563C40.449 94.2563 40.449 95.9504 41.5417 95.9504Z"
        fill="#231F20" />
    <path
        d="M40.8102 98.5451C41.9 98.5451 41.9029 96.8511 40.8102 96.8511C39.7176 96.8511 39.7176 98.5451 40.8102 98.5451Z"
        fill="#231F20" />
</svg>