<svg width="71" height="71" viewBox="0 0 71 71" fill="none" xmlns="http://www.w3.org/2000/svg">
    <rect width="71" height="71" rx="15" fill="url(#paint0_linear)" />
    <path d="M35.4893 50.6599V20.8716H38.7327V50.6599H35.4893Z" fill="white" />
    <path
        d="M52.0001 30.796L41.9832 33.4526L39.7494 23.0553L42.728 22.3822L43.9022 27.3087C43.9022 27.3087 46.6086 22.8691 43.0001 18.272C40.8735 15.909 39.864 15.8087 37.4796 15.4364C35.3819 15.1356 30.5059 15.8445 29.0524 21.5373C28.4366 25.2035 29.1312 27.9174 33.8568 31.4691L33.5918 35.4218C33.5918 35.4218 28.315 31.7054 26.9545 29.0989C25.902 27.0366 24.0977 22.9622 27.3555 17.291C29.1097 14.4554 32.568 11.7344 38.6611 12.0208C41.7256 12.1497 49.2076 15.8947 48.0477 24.645C47.8472 26.2848 46.9953 28.4688 46.9953 28.4688L51.105 27.5522L52.0001 30.796Z"
        fill="white" />
    <path
        d="M46.2793 54.1046C44.4463 56.8901 40.9165 59.518 34.8377 59.0741C31.7733 58.8664 24.3985 54.9209 25.7875 46.2064C26.031 44.5737 26.9403 42.4184 26.9403 42.4184L22.809 43.2204L22 39.9623L32.0883 37.5706L34.05 48.0252L31.05 48.6195L30.0047 43.6572C30.0047 43.6572 27.1837 48.018 30.6635 52.7154C32.7255 55.1357 33.728 55.2574 36.1122 55.6942C38.1958 56.0523 43.0931 55.4651 44.6969 49.8153C45.4058 46.1706 44.7828 43.4352 40.1575 39.7546L40.5298 35.8091C40.5298 35.8091 45.7066 39.6615 46.9953 42.3038C47.9833 44.4019 49.6803 48.5264 46.2793 54.1046Z"
        fill="white" />
    <defs>
        <linearGradient id="paint0_linear" x1="0" y1="0" x2="71" y2="71" gradientUnits="userSpaceOnUse">
            <stop stop-color="#0074FA" />
            <stop offset="1" stop-color="#095EB4" />
        </linearGradient>
    </defs>
</svg>