<svg width="48" height="48" viewBox="0 0 48 48" fill="none" xmlns="http://www.w3.org/2000/svg">
    <g filter="url(#filter0_d)">
        <path
            d="M34 0H14C8.47715 0 4 4.47715 4 10V30C4 35.5228 8.47715 40 14 40H34C39.5228 40 44 35.5228 44 30V10C44 4.47715 39.5228 0 34 0Z"
            fill="black" />
        <path
            d="M29.4998 28.6667C30.3332 29.6667 31.1665 30.6667 31.1665 30.6667C36.8332 30.5 38.9998 26.8334 38.9998 26.8334C38.9998 18.6667 35.3332 11.8334 35.3332 11.8334C31.6665 9.00004 28.1665 9.1667 28.1665 9.1667L27.8332 9.50004C32.1665 10.8334 34.1665 12.8334 34.1665 12.8334C31.4998 11.3334 28.8332 10.6667 26.4998 10.3334C24.6665 10.1667 22.8332 10.1667 21.3332 10.3334H20.8332C19.9998 10.3334 17.8332 10.6667 14.9998 12C13.9998 12.6667 13.4998 12.8334 13.4998 12.8334C13.4998 12.8334 15.6665 10.8334 20.1665 9.50004L19.9998 9.1667C19.9998 9.1667 16.4998 9.1667 12.8332 11.8334C12.8332 11.8334 9.1665 18.5 9.1665 26.8334C9.1665 26.8334 11.3332 30.5 16.9998 30.6667C16.9998 30.6667 17.9998 29.5 18.6665 28.5C15.3332 27.5 14.1665 25.5 14.1665 25.5L14.8332 26H14.9998H15.1665H15.3332C15.9998 26.3334 16.6665 26.6667 17.1665 26.8334C18.1665 27.1667 19.4998 27.6667 20.9998 28C22.9998 28.3334 25.1665 28.5 27.6665 28C28.8332 27.8334 30.1665 27.5 31.3332 26.8334C32.1665 26.5 33.1665 26 34.3332 25.3334C33.9998 25.6667 32.8332 27.6667 29.4998 28.6667ZM19.1665 24.5C17.6665 24.5 16.4998 23.1667 16.4998 21.6667C16.4998 20.1667 17.6665 18.8334 19.1665 18.8334C20.6665 18.8334 21.8332 20.1667 21.8332 21.6667C21.8332 23.1667 20.6665 24.5 19.1665 24.5ZM28.4998 24.5C26.9998 24.5 25.8332 23.1667 25.8332 21.6667C25.8332 20.1667 26.9998 18.8334 28.4998 18.8334C29.9998 18.8334 31.1665 20.1667 31.1665 21.6667C31.1665 23.1667 29.9998 24.5 28.4998 24.5Z"
            fill="white" />
    </g>
    <defs>
        <filter id="filter0_d" x="0" y="0" width="48" height="48" filterUnits="userSpaceOnUse"
            color-interpolation-filters="sRGB">
            <feFlood flood-opacity="0" result="BackgroundImageFix" />
            <feColorMatrix in="SourceAlpha" type="matrix" values="0 0 0 0 0 0 0 0 0 0 0 0 0 0 0 0 0 0 127 0" />
            <feOffset dy="4" />
            <feGaussianBlur stdDeviation="2" />
            <feColorMatrix type="matrix" values="0 0 0 0 0 0 0 0 0 0 0 0 0 0 0 0 0 0 0.25 0" />
            <feBlend mode="normal" in2="BackgroundImageFix" result="effect1_dropShadow" />
            <feBlend mode="normal" in="SourceGraphic" in2="effect1_dropShadow" result="shape" />
        </filter>
    </defs>
</svg>