<svg width="48" height="48" viewBox="0 0 48 48" fill="none" xmlns="http://www.w3.org/2000/svg">
<g filter="url(#filter0_d)">
<path d="M34 0H14C8.47715 0 4 4.47715 4 10V30C4 35.5228 8.47715 40 14 40H34C39.5228 40 44 35.5228 44 30V10C44 4.47715 39.5228 0 34 0Z" fill="black"/>
<path fill-rule="evenodd" clip-rule="evenodd" d="M11.85 12.3625C11.85 11.95 11.7125 11.5375 11.4375 11.2625L8.4125 7.55V7H18.0375L25.4625 23.225L31.925 7H41V7.55L38.3875 10.025C38.1125 10.1625 38.1125 10.4375 38.1125 10.7125V29.275C38.1125 29.55 38.1125 29.825 38.3875 29.9625L41 32.4375V32.9875H28.075V32.4375L30.6875 29.825C30.9625 29.55 30.9625 29.55 30.9625 29.1375V14.2875L23.5375 33.125H22.575L13.9125 14.2875V26.9375C13.775 27.4875 14.05 28.0375 14.325 28.45L17.7625 32.7125V33.125H8V32.575L11.4375 28.3125C11.85 27.9 11.9875 27.35 11.85 26.8C11.85 26.9375 11.85 12.3625 11.85 12.3625Z" fill="white"/>
</g>
<defs>
<filter id="filter0_d" x="0" y="0" width="48" height="48" filterUnits="userSpaceOnUse" color-interpolation-filters="sRGB">
<feFlood flood-opacity="0" result="BackgroundImageFix"/>
<feColorMatrix in="SourceAlpha" type="matrix" values="0 0 0 0 0 0 0 0 0 0 0 0 0 0 0 0 0 0 127 0"/>
<feOffset dy="4"/>
<feGaussianBlur stdDeviation="2"/>
<feColorMatrix type="matrix" values="0 0 0 0 0 0 0 0 0 0 0 0 0 0 0 0 0 0 0.25 0"/>
<feBlend mode="normal" in2="BackgroundImageFix" result="effect1_dropShadow"/>
<feBlend mode="normal" in="SourceGraphic" in2="effect1_dropShadow" result="shape"/>
</filter>
</defs>
</svg>
