<svg width="305" height="161" viewBox="0 0 305 161" fill="none" xmlns="http://www.w3.org/2000/svg">
    <path
        d="M44.6867 83.5533L44.7214 83.5175H44.6521L33.6327 76.6943L22.6826 83.5175H22.6133L22.6479 83.5533H22.6133H22.6826L33.702 90.3408L44.6521 83.5533H44.7214H44.6867Z"
        fill="#937DFF" />
    <path
        d="M44.722 57.7233V69.9767V82.2301V83.5162L33.7026 90.3396V102.629L44.722 95.8054L55.776 88.982V75.4425V75.4069V63.1534V50.8643L44.722 57.7233Z"
        fill="#FFBE44" />
    <path d="M55.7756 50.8642L44.7215 44.041L33.7368 50.8999L44.7215 57.7232L55.7756 50.8642Z" fill="#937DFF" />
    <path d="M33.7733 64.5825L22.7539 57.7236L33.7386 50.9004L33.7733 64.5825Z" fill="#937DFF" />
    <path
        d="M89.3883 76.2649C89.3883 79.6229 86.824 82.0164 83.1509 82.0164H76.6016H74.6958V62.4756H78.4381H81.4182C84.9182 62.4756 87.4131 64.6904 87.4131 67.9056C87.4131 69.3702 86.8933 70.5492 85.9924 71.4422C88.1061 72.1924 89.3883 73.8715 89.3883 76.2649ZM78.4381 65.9051V70.3706H81.1064C82.7004 70.3706 83.5666 69.4418 83.5666 68.1199C83.5666 66.7624 82.7004 65.9051 81.1064 65.9051H78.4381ZM85.5765 76.0862C85.5765 74.5859 84.5716 73.6213 82.8736 73.6213H78.4381V78.5155H82.8736C84.5716 78.5513 85.5765 77.6223 85.5765 76.0862Z"
        fill="black" />
    <path
        d="M104.115 73.301V81.9818H100.546V80.5529C99.5412 81.6603 98.0511 82.3391 96.2146 82.3391C93.1305 82.3391 91.2939 80.4458 91.2939 77.9451C91.2939 75.2658 93.373 73.694 96.665 73.694H100.234V73.0509C100.234 71.4434 99.3332 70.4788 97.6006 70.4788C96.0759 70.4788 95.0017 71.2291 93.8582 72.4794L91.8483 70.0145C93.5117 67.9782 95.5561 67.0137 98.0512 67.0137C101.655 67.0137 104.115 69.1213 104.115 73.301ZM100.269 76.5162V76.3376H97.2195C95.9719 76.3376 95.2443 76.8377 95.2443 77.8023C95.2443 78.8025 96.0759 79.4098 97.2888 79.4098C98.9174 79.4098 100.269 78.2309 100.269 76.5162Z"
        fill="black" />
    <path
        d="M122.654 74.6926C122.654 79.0867 119.778 82.3375 115.758 82.3375C113.818 82.3375 112.189 81.5516 111.184 80.1583V81.9803H107.615V59.7959H111.496V68.7625C112.466 67.6551 113.956 67.012 115.758 67.012C119.778 67.012 122.654 70.2629 122.654 74.6926ZM118.738 74.6569C118.738 72.1563 117.075 70.6201 115.065 70.6201C113.263 70.6201 111.496 71.9062 111.496 74.6569C111.496 77.4791 113.298 78.6936 115.065 78.6936C117.075 78.6936 118.738 77.1219 118.738 74.6569Z"
        fill="black" />
    <path
        d="M138.768 67.3346L131.976 83.2315C130.694 86.2323 128.996 87.6256 126.328 87.6256C125.531 87.6256 124.595 87.4826 123.833 87.2683V83.9103C124.491 83.9817 125.046 84.0175 125.496 84.0175C126.744 84.0175 127.748 83.696 128.442 82.0527L128.857 81.0881L123.417 67.2988H127.506L130.971 76.9084L134.679 67.2988H138.768V67.3346Z"
        fill="black" />
    <path d="M144.173 81.9803H140.293V59.7959H144.173V81.9803Z" fill="black" />
    <path
        d="M162.053 74.6585C162.053 79.0168 158.622 82.3034 154.395 82.3034C150.167 82.3034 146.806 78.9811 146.806 74.6585C146.806 70.336 150.167 67.0137 154.395 67.0137C158.588 67.0137 162.053 70.336 162.053 74.6585ZM150.756 74.6943C150.756 77.0163 152.281 78.6595 154.43 78.6595C156.509 78.6595 158.103 76.9805 158.103 74.6943C158.103 72.3722 156.509 70.6574 154.43 70.6574C152.247 70.6574 150.756 72.3722 150.756 74.6943Z"
        fill="black" />
    <path
        d="M177.682 72.9079V81.9817H173.835V73.4437C173.835 71.7648 172.761 70.6216 171.202 70.6216C169.643 70.6216 168.499 71.7648 168.499 73.4437V81.9817H164.617V67.335H168.186V68.6925C169.158 67.6922 170.613 67.0492 172.345 67.0492C175.672 67.0135 177.682 69.4069 177.682 72.9079Z"
        fill="black" />
    <path
        d="M186.761 79.5877C186.761 81.1594 185.652 82.3383 184.127 82.3383C182.568 82.3383 181.424 81.1594 181.424 79.5877C181.424 78.0515 182.568 76.8369 184.127 76.8369C185.618 76.8369 186.761 78.0515 186.761 79.5877Z"
        fill="#937DFF" />
    <path
        d="M195.736 59.4385C196.636 59.4385 197.329 59.5814 197.849 59.7601V63.118C197.433 63.0466 197.087 63.0466 196.706 63.0466C194.973 63.0466 194.107 63.6539 194.107 65.3329V67.3691H197.225V70.7272H194.107V81.9801H190.225V70.7272H188.216V67.3691H190.225V64.9756C190.225 61.189 192.409 59.4385 195.736 59.4385ZM199.27 62.0106C199.27 60.5817 200.379 59.51 201.765 59.51C203.116 59.51 204.225 60.5817 204.225 62.0106C204.225 63.4039 203.116 64.4755 201.765 64.4755C200.414 64.4755 199.27 63.4039 199.27 62.0106ZM199.824 67.3335H203.705V81.9801H199.824V67.3335Z"
        fill="#937DFF" />
    <path
        d="M220.893 72.9079V81.9817H217.046V73.4437C217.046 71.7648 215.972 70.6216 214.413 70.6216C212.854 70.6216 211.711 71.7648 211.711 73.4437V81.9817H207.829V67.335H211.398V68.6925C212.368 67.6922 213.824 67.0492 215.557 67.0492C218.883 67.0135 220.893 69.4069 220.893 72.9079Z"
        fill="#937DFF" />
    <path
        d="M236.071 73.301V81.9818H232.502V80.5529C231.496 81.6603 230.007 82.3391 228.17 82.3391C225.086 82.3391 223.249 80.4458 223.249 77.9451C223.249 75.2658 225.329 73.694 228.62 73.694H232.189V73.0509C232.189 71.4434 231.289 70.4788 229.556 70.4788C228.031 70.4788 226.957 71.2291 225.814 72.4794L223.804 70.0145C225.467 67.9782 227.512 67.0137 230.007 67.0137C233.61 67.0137 236.071 69.1213 236.071 73.301ZM232.225 76.5162V76.3376H229.175C227.927 76.3376 227.199 76.8377 227.199 77.8023C227.199 78.8025 228.031 79.4098 229.245 79.4098C230.873 79.4098 232.225 78.2309 232.225 76.5162Z"
        fill="#937DFF" />
    <path
        d="M252.151 72.9079V81.9817H248.304V73.4437C248.304 71.7648 247.23 70.6216 245.671 70.6216C244.111 70.6216 242.968 71.7648 242.968 73.4437V81.9817H239.087V67.335H242.656V68.6925C243.626 67.6922 245.081 67.0492 246.815 67.0492C250.141 67.0135 252.151 69.4069 252.151 72.9079Z"
        fill="#937DFF" />
    <path
        d="M267.779 70.6218L265.075 72.7652C264.278 71.5148 263.239 70.6218 261.645 70.6218C259.427 70.6218 257.903 72.3365 257.903 74.6228C257.903 76.9449 259.427 78.6595 261.645 78.6595C263.204 78.6595 264.244 77.7665 265.075 76.5519L267.779 78.6953C266.6 80.8744 264.418 82.3391 261.61 82.3391C257.348 82.3391 254.021 78.9811 254.021 74.6585C254.021 70.336 257.383 67.0137 261.61 67.0137C264.452 67.0137 266.6 68.4426 267.779 70.6218Z"
        fill="#937DFF" />
    <path
        d="M282.644 76.0155H272.665C273.15 77.8731 274.639 78.9091 276.684 78.9091C278.244 78.9091 279.491 78.3375 280.635 77.4444L282.229 80.1595C280.635 81.5526 278.729 82.3386 276.545 82.3386C272.041 82.3386 268.783 78.9805 268.783 74.6937C268.783 70.4069 272.041 67.0488 276.199 67.0488C280.184 67.0488 282.886 70.0496 282.886 73.8364C282.922 74.658 282.748 75.5153 282.644 76.0155ZM272.665 73.1933H279.144C279.11 71.3357 277.723 70.2283 276.06 70.2283C274.432 70.264 273.115 71.3715 272.665 73.1933Z"
        fill="#937DFF" />
</svg>