<svg width="305" height="160" viewBox="0 0 305 160" fill="none" xmlns="http://www.w3.org/2000/svg">
    <path d="M58.5522 92.8487V82.3057H47.071C43.9488 82.3057 41.0566 83.9447 39.4575 86.6206L35.7354 92.8487H58.5522Z"
        fill="#63D2F9" />
    <path d="M22.0107 52.3457V62.8887H52.2511L58.5521 52.3457H22.0107Z" fill="#4E5EE4" />
    <path
        d="M36.4834 68.8231L22.0439 92.8485H34.346L51.613 64.1055H44.8197C41.4028 64.1055 38.2372 65.8969 36.4834 68.8231Z"
        fill="#63B0F9" />
    <path
        d="M84.7248 82.7314C78.5388 82.7314 73.9868 78.2348 73.9868 72.2007C73.9868 66.2246 78.568 61.6701 84.754 61.6701C90.94 61.6701 95.5211 66.2827 95.5211 72.2007C95.5211 78.1768 90.9108 82.7314 84.7248 82.7314ZM84.754 79.0471C88.664 79.0471 91.4652 76.1461 91.4652 72.2007C91.4652 68.3134 88.664 65.3543 84.754 65.3543C80.8148 65.3543 78.0136 68.3134 78.0136 72.2007C78.0136 76.1461 80.8148 79.0471 84.754 79.0471ZM99.6635 89.0266V67.0949H103.398V69.0386H103.603C104.011 68.4004 105.412 66.7178 108.213 66.7178C112.502 66.7178 115.449 69.9089 115.449 74.6666C115.449 79.4242 112.532 82.7314 108.33 82.7314C105.616 82.7314 104.157 81.2228 103.661 80.3815H103.457V89.0266H99.6635ZM107.484 79.3082C109.935 79.3082 111.598 77.4225 111.598 74.7246C111.598 71.9396 109.935 70.141 107.454 70.141C104.945 70.141 103.369 72.1427 103.369 74.7246C103.369 77.5676 105.12 79.3082 107.484 79.3082ZM126.303 82.7314C121.78 82.7314 118.571 79.3662 118.571 74.8116C118.571 69.9959 121.809 66.7178 126.303 66.7178C131.234 66.7178 133.919 70.3441 133.919 74.6376V75.827H122.247C122.364 78.1478 123.969 79.7143 126.42 79.7143C128.287 79.7143 129.717 78.844 130.242 77.5966H133.773C133.014 80.7007 130.271 82.7314 126.303 82.7314ZM122.306 73.158H130.301C130.126 71.0983 128.521 69.7349 126.303 69.7349C124.173 69.7349 122.539 71.2434 122.306 73.158ZM138.003 82.3542V67.0949H141.621V68.9516H141.825C142.438 67.8202 143.955 66.7178 146.144 66.7178C149.587 66.7178 151.688 69.1256 151.688 72.3748V82.3542H147.895V73.3611C147.895 71.5045 146.698 70.257 144.948 70.257C143.109 70.257 141.796 71.7075 141.796 73.6222V82.3542H138.003ZM155.451 82.3542V78.902L166.072 65.5864V65.3833H155.83V62.0472H170.916V65.4704L160.295 78.786V79.0181H170.974V82.3542H155.451ZM181.244 82.7314C176.722 82.7314 173.512 79.3662 173.512 74.8116C173.512 69.9959 176.751 66.7178 181.244 66.7178C186.176 66.7178 188.86 70.3441 188.86 74.6376V75.827H177.188C177.305 78.1478 178.91 79.7143 181.361 79.7143C183.229 79.7143 184.658 78.844 185.184 77.5966H188.714C187.956 80.7007 185.213 82.7314 181.244 82.7314ZM177.247 73.158H185.242C185.067 71.0983 183.462 69.7349 181.244 69.7349C179.114 69.7349 177.48 71.2434 177.247 73.158ZM192.944 89.0266V67.0949H196.679V69.0386H196.883C197.292 68.4004 198.693 66.7178 201.494 66.7178C205.783 66.7178 208.73 69.9089 208.73 74.6666C208.73 79.4242 205.812 82.7314 201.61 82.7314C198.897 82.7314 197.438 81.2228 196.942 80.3815H196.738V89.0266H192.944ZM200.764 79.3082C203.215 79.3082 204.879 77.4225 204.879 74.7246C204.879 71.9396 203.215 70.141 200.735 70.141C198.226 70.141 196.65 72.1427 196.65 74.7246C196.65 77.5676 198.401 79.3082 200.764 79.3082ZM212.814 89.0266V67.0949H216.549V69.0386H216.753C217.162 68.4004 218.563 66.7178 221.364 66.7178C225.653 66.7178 228.6 69.9089 228.6 74.6666C228.6 79.4242 225.682 82.7314 221.48 82.7314C218.767 82.7314 217.308 81.2228 216.812 80.3815H216.608V89.0266H212.814ZM220.634 79.3082C223.085 79.3082 224.749 77.4225 224.749 74.7246C224.749 71.9396 223.085 70.141 220.605 70.141C218.096 70.141 216.52 72.1427 216.52 74.7246C216.52 77.5676 218.271 79.3082 220.634 79.3082ZM239.454 82.7314C234.931 82.7314 231.721 79.3662 231.721 74.8116C231.721 69.9959 234.96 66.7178 239.454 66.7178C244.385 66.7178 247.07 70.3441 247.07 74.6376V75.827H235.398C235.515 78.1478 237.119 79.7143 239.571 79.7143C241.438 79.7143 242.868 78.844 243.393 77.5966H246.924C246.165 80.7007 243.422 82.7314 239.454 82.7314ZM235.456 73.158H243.451C243.276 71.0983 241.671 69.7349 239.454 69.7349C237.324 69.7349 235.69 71.2434 235.456 73.158ZM254.889 82.3542C252.204 82.3542 250.687 80.7587 250.687 78.0607V60.5967H254.48V77.7126C254.48 78.5829 254.918 79.0471 255.706 79.0471H256.318V82.3542H254.889ZM261.861 65.0642C260.49 65.0642 259.527 64.2229 259.527 62.8595C259.527 61.554 260.49 60.6837 261.861 60.6837C263.233 60.6837 264.196 61.554 264.196 62.8595C264.196 64.2229 263.233 65.0642 261.861 65.0642ZM259.965 82.3542V67.0949H263.758V82.3542H259.965ZM268.367 82.3542V67.0949H271.985V68.9516H272.19C272.802 67.8202 274.32 66.7178 276.508 66.7178C279.951 66.7178 282.052 69.1256 282.052 72.3748V82.3542H278.259V73.3611C278.259 71.5045 277.063 70.257 275.312 70.257C273.474 70.257 272.161 71.7075 272.161 73.6222V82.3542H268.367Z"
        fill="#282846" />
</svg>