<svg width="306" height="160" viewBox="0 0 306 160" fill="none" xmlns="http://www.w3.org/2000/svg">
    <g clip-path="url(#clip0)">
        <path fill-rule="evenodd" clip-rule="evenodd"
            d="M120.399 75.2669V63.4326H126.168V75.7375C126.168 76.9626 126.544 77.9447 127.299 78.6854C128.054 79.4257 129.015 79.7965 130.183 79.7965C131.322 79.7965 132.262 79.4184 133.003 78.6639C133.743 77.9094 134.114 76.9334 134.114 75.7375V63.4326H139.881V75.2669C139.881 78.1722 138.962 80.5369 137.126 82.359C135.288 84.1825 132.974 85.0936 130.183 85.0936C127.335 85.0936 124.993 84.1894 123.155 82.3801C121.318 80.5717 120.399 78.2011 120.399 75.2669Z"
            fill="#12141E" />
        <path fill-rule="evenodd" clip-rule="evenodd"
            d="M158.973 74.028C158.973 72.291 158.461 70.8814 157.435 69.7978C156.411 68.7168 155.1 68.1752 153.505 68.1752C151.968 68.1752 150.692 68.688 149.682 69.713C148.67 70.7386 148.165 72.1624 148.165 73.9855C148.165 75.8085 148.67 77.2397 149.682 78.2781C150.692 79.3191 151.968 79.8383 153.505 79.8383C155.071 79.8383 156.375 79.2976 157.414 78.2144C158.454 77.1321 158.973 75.7371 158.973 74.028ZM161.9 66.1031C163.851 68.1963 164.827 70.8237 164.827 73.9855C164.827 77.1467 163.851 79.7884 161.9 81.9104C159.949 84.032 157.507 85.0932 154.573 85.0932C151.924 85.0932 149.816 84.2389 148.25 82.5298V92.2701H142.483V63.4322H147.78V66.082C149.233 64.0026 151.497 62.9629 154.573 62.9629C157.507 62.9629 159.949 64.0091 161.9 66.1031Z"
            fill="#12141E" />
        <path fill-rule="evenodd" clip-rule="evenodd"
            d="M172.727 71.8916H182.34C182.311 70.6101 181.862 69.5777 180.994 68.7944C180.124 68.0115 179.049 67.6201 177.768 67.6201C176.543 67.6201 175.475 68.0042 174.564 68.7733C173.652 69.5416 173.04 70.5822 172.727 71.8916ZM187.551 75.9502H172.727C173.069 77.2897 173.758 78.3221 174.799 79.0478C175.838 79.7748 177.127 80.1379 178.665 80.1379C180.744 80.1379 182.709 79.4255 184.561 78.0008L186.953 81.9321C184.418 84.0399 181.598 85.0934 178.494 85.0934C175.247 85.1497 172.492 84.0889 170.227 81.9106C167.963 79.7309 166.859 77.1039 166.917 74.0282C166.859 70.9805 167.927 68.3604 170.121 66.1674C172.313 63.974 174.933 62.9063 177.982 62.9631C180.887 62.9631 183.272 63.9026 185.137 65.7828C187.003 67.6626 187.936 69.998 187.936 72.7898C187.936 73.814 187.807 74.8692 187.551 75.9502Z"
            fill="#12141E" />
        <path fill-rule="evenodd" clip-rule="evenodd"
            d="M203.437 63.4333V68.5178H201.899C200.132 68.5178 198.744 68.988 197.734 69.9279C196.721 70.8674 196.217 72.2349 196.217 74.0291V84.5815H190.449V63.4333H195.747V65.954C197.227 64.1035 199.165 63.1777 201.557 63.1777C202.269 63.1777 202.896 63.2629 203.437 63.4333Z"
            fill="#12141E" />
        <path fill-rule="evenodd" clip-rule="evenodd"
            d="M219.792 84.5803H225.56V52.0254H219.792V84.5803ZM217.038 52.0254V57.1951H215.649C214.31 57.1951 213.334 57.4515 212.723 57.9643C212.11 58.4762 211.804 59.3167 211.804 60.4846V63.4321H217.038V68.3029H211.804V84.5803H206.036V59.9723C206.036 57.3521 206.748 55.3729 208.173 54.0334C209.596 52.6956 211.604 52.0254 214.196 52.0254H217.038Z"
            fill="#12141E" />
        <path fill-rule="evenodd" clip-rule="evenodd"
            d="M228.37 75.2669V63.4326H234.138V75.7375C234.138 76.9626 234.515 77.9447 235.27 78.6854C236.024 79.4257 236.985 79.7965 238.154 79.7965C239.292 79.7965 240.232 79.4184 240.973 78.6639C241.713 77.9094 242.083 76.9334 242.083 75.7375V63.4326H247.851V75.2669C247.851 78.1722 246.933 80.5369 245.095 82.359C243.259 84.1825 240.944 85.0936 238.154 85.0936C235.305 85.0936 232.963 84.1894 231.126 82.3801C229.288 80.5717 228.37 78.2011 228.37 75.2669Z"
            fill="#12141E" />
        <path fill-rule="evenodd" clip-rule="evenodd" d="M250.662 84.5808H256.429V63.4326H250.662V84.5808Z"
            fill="#12141E" />
        <path fill-rule="evenodd" clip-rule="evenodd"
            d="M274.645 78.2995C275.655 77.2744 276.162 75.851 276.162 74.0279C276.162 72.2049 275.649 70.7737 274.624 69.734C273.598 68.6943 272.331 68.1751 270.821 68.1751C269.254 68.1751 267.951 68.7167 266.912 69.7977C265.872 70.8813 265.353 72.2763 265.353 73.9853C265.353 75.7232 265.866 77.132 266.891 78.2143C267.916 79.2975 269.226 79.8382 270.821 79.8382C272.359 79.8382 273.633 79.3254 274.645 78.2995ZM276.076 52.0254H281.843V84.5803H276.546V81.9739C275.093 84.0534 272.829 85.0931 269.753 85.0931C266.79 85.0931 264.341 84.046 262.405 81.9529C260.467 79.8597 259.5 77.218 259.5 74.0279C259.5 70.8382 260.467 68.1962 262.405 66.103C264.341 64.0089 266.79 62.9628 269.753 62.9628C272.429 62.9628 274.538 63.8033 276.076 65.4835V52.0254Z"
            fill="#12141E" />
        <path fill-rule="evenodd" clip-rule="evenodd"
            d="M111.377 68.3886L108.173 66.9793C106.92 66.4102 106.058 65.9043 105.589 65.4617C105.119 65.0212 104.884 64.4444 104.884 63.7324C104.884 63.6266 104.904 63.5328 104.914 63.4326H99.051C99.0446 63.5754 99.0308 63.7144 99.0308 63.8602C99.0308 67.2499 101.309 69.9556 105.867 71.9779L108.899 73.3445C110.323 74.0005 111.277 74.5485 111.762 74.9894C112.246 75.4308 112.489 76.0515 112.489 76.8473C112.489 77.8169 112.132 78.5779 111.42 79.1337C110.708 79.689 109.725 79.9665 108.472 79.9665C105.851 79.9665 103.545 78.599 101.551 75.8653L97.5781 78.8553C98.6888 80.7932 100.191 82.316 102.085 83.4271C103.979 84.5383 106.108 85.0936 108.472 85.0936C111.349 85.0936 113.713 84.3176 115.564 82.7651C117.415 81.2126 118.341 79.1694 118.341 76.6344C118.341 74.7541 117.786 73.1815 116.675 71.9138C115.564 70.6465 113.798 69.4717 111.377 68.3886Z"
            fill="#12141E" />
        <path fill-rule="evenodd" clip-rule="evenodd"
            d="M118.342 55.041H109.951V59.2369H114.147V63.4323H118.342V55.041Z" fill="#12141E" />
        <path fill-rule="evenodd" clip-rule="evenodd" d="M256.429 63.4325H262.787V57.0742H256.429V63.4325Z"
            fill="#12141E" />
        <path fill-rule="evenodd" clip-rule="evenodd"
            d="M71.2826 77.4974H60.072V66.2869H48.8611V55.0759H71.2826V77.4974ZM37.6505 88.7079H48.8611V77.4974H37.6505V88.7079ZM23.7441 47.8852V95.8994C23.7441 99.6079 26.7506 102.615 30.4595 102.615H78.4737C82.1825 102.615 85.189 99.6079 85.189 95.8994V47.8852C85.189 44.1763 82.1825 41.1699 78.4737 41.1699H30.4595C26.7506 41.1699 23.7441 44.1763 23.7441 47.8852Z"
            fill="#12141E" />
    </g>
</svg>