<svg width="305" height="160" viewBox="0 0 305 160" fill="none" xmlns="http://www.w3.org/2000/svg">
    <path
        d="M129.537 79.7044C132.851 79.708 136.071 78.6079 138.69 76.5775L117.697 55.5996C115.986 57.8141 114.93 60.464 114.648 63.2486C114.367 66.0332 114.871 68.8411 116.104 71.3535C117.337 73.8659 119.249 75.9822 121.623 77.4624C123.998 78.9425 126.74 79.7272 129.537 79.7274V79.7044ZM191.94 64.7267C191.94 61.4206 190.838 58.2089 188.808 55.5996L167.816 76.5775C170.03 78.2911 172.68 79.3492 175.465 79.6316C178.25 79.914 181.058 79.4094 183.57 78.175C186.083 76.9407 188.199 75.0262 189.679 72.649C191.158 70.2717 191.941 67.527 191.94 64.7267Z"
        fill="black" />
    <path
        d="M202.491 41.8884L193.206 51.1767C196.597 55.2302 198.347 60.4067 198.113 65.6868C197.879 70.9669 195.677 75.9679 191.941 79.7052C188.205 83.4424 183.206 85.6451 177.928 85.8793C172.65 86.1135 167.476 84.3624 163.424 80.9708L153.253 91.1459L143.082 80.9708C139.03 84.3624 133.855 86.1135 128.577 85.8793C123.299 85.6451 118.3 83.4424 114.565 79.7052C110.829 75.9679 108.627 70.9669 108.393 65.6868C108.159 60.4067 109.909 55.2302 113.299 51.1767L108.528 46.3857L104.015 41.8711C98.7284 50.6048 95.8582 60.5876 95.6985 70.7964C95.5387 81.0052 98.095 91.073 103.106 99.968C108.116 108.863 115.4 116.265 124.212 121.416C133.024 126.568 143.047 129.282 153.253 129.282C163.459 129.282 173.481 126.568 182.293 121.416C191.105 116.265 198.39 108.863 203.4 99.968C208.411 91.073 210.967 81.0052 210.807 70.7964C210.648 60.5876 207.777 50.6048 202.491 41.8711V41.8884Z"
        fill="black" />
    <path
        d="M194.899 31.9897C189.524 26.354 183.062 21.8678 175.903 18.8027C168.745 15.7376 161.04 14.1572 153.253 14.1572C145.467 14.1572 137.761 15.7376 130.603 18.8027C123.445 21.8678 116.983 26.354 111.607 31.9897C110.182 33.4894 108.837 35.0636 107.578 36.7058L153.253 82.3932L198.94 36.6943C197.677 35.0558 196.328 33.4853 194.899 31.9897ZM153.253 21.6706C159.831 21.6377 166.348 22.9179 172.425 25.4363C178.502 27.9548 184.015 31.6607 188.642 36.3373L153.253 71.7228L117.864 36.3373C122.491 31.6607 128.005 27.9548 134.081 25.4363C140.158 22.9179 146.676 21.6377 153.253 21.6706Z"
        fill="black" />
</svg>