<svg width="305" height="160" viewBox="0 0 305 160" fill="none" xmlns="http://www.w3.org/2000/svg">
    <g filter="url(#filter0_d)">
        <path
            d="M12.3037 24.293C12.3037 13.2473 21.258 4.29297 32.3037 4.29297H272.603C283.649 4.29297 292.603 13.2473 292.603 24.293V119.439C292.603 130.485 283.649 139.439 272.603 139.439H32.3037C21.258 139.439 12.3037 130.485 12.3037 119.439V24.293Z"
            fill="white" />
        <path
            d="M12.5524 24.293C12.5524 13.3846 21.3954 4.54164 32.3037 4.54164H272.603C283.511 4.54164 292.354 13.3846 292.354 24.293V119.439C292.354 130.348 283.511 139.191 272.603 139.191H32.3037C21.3953 139.191 12.5524 130.348 12.5524 119.439V24.293Z"
            stroke="#3B3B3B" stroke-opacity="0.25" stroke-width="0.497337" />
    </g>
    <path
        d="M104.135 48.2101C104.135 51.3142 103.538 53.9454 102.344 56.1036C101.15 58.2618 99.5336 59.9011 97.4948 61.0215C95.4652 62.1419 93.1876 62.7021 90.6621 62.7021C88.1274 62.7021 85.8452 62.1373 83.8156 61.0077C81.786 59.8781 80.1742 58.2388 78.9803 56.0898C77.7956 53.9316 77.2033 51.305 77.2033 48.2101C77.2033 45.106 77.7956 42.4748 78.9803 40.3166C80.1742 38.1585 81.786 36.5191 83.8156 35.3987C85.8452 34.2783 88.1274 33.7181 90.6621 33.7181C93.1876 33.7181 95.4652 34.2783 97.4948 35.3987C99.5336 36.5191 101.15 38.1585 102.344 40.3166C103.538 42.4748 104.135 45.106 104.135 48.2101ZM97.1642 48.2101C97.1642 46.3734 96.9025 44.8213 96.379 43.5539C95.8647 42.2866 95.1208 41.3269 94.1473 40.6748C93.1831 40.0228 92.0213 39.6967 90.6621 39.6967C89.3121 39.6967 88.1503 40.0228 87.1769 40.6748C86.2034 41.3269 85.4549 42.2866 84.9314 43.5539C84.4171 44.8213 84.16 46.3734 84.16 48.2101C84.16 50.0469 84.4171 51.5989 84.9314 52.8663C85.4549 54.1337 86.2034 55.0934 87.1769 55.7454C88.1503 56.3975 89.3121 56.7235 90.6621 56.7235C92.0213 56.7235 93.1831 56.3975 94.1473 55.7454C95.1208 55.0934 95.8647 54.1337 96.379 52.8663C96.9025 51.5989 97.1642 50.0469 97.1642 48.2101ZM120.059 41.157V46.1162H106.711V41.157H120.059ZM109.507 36.0875H116.244V55.6628C116.244 56.076 116.308 56.4112 116.436 56.6684C116.574 56.9163 116.772 57.0954 117.029 57.2056C117.286 57.3067 117.594 57.3572 117.952 57.3572C118.209 57.3572 118.48 57.3342 118.764 57.2883C119.058 57.2332 119.279 57.1873 119.426 57.1505L120.445 62.0133C120.124 62.1052 119.669 62.22 119.081 62.3577C118.503 62.4955 117.809 62.5827 117.001 62.6195C115.422 62.6929 114.067 62.5093 112.937 62.0684C111.817 61.6184 110.958 60.9205 110.361 59.9745C109.774 59.0286 109.489 57.8393 109.507 56.4066V36.0875ZM130.687 50.2489V62.3164H123.951V34.1038H130.467V45.0417H130.701C131.179 43.7376 131.959 42.7182 133.043 41.9835C134.136 41.2488 135.472 40.8814 137.052 40.8814C138.539 40.8814 139.834 41.2121 140.936 41.8733C142.039 42.5253 142.893 43.4483 143.499 44.6422C144.114 45.8361 144.417 47.232 144.408 48.83V62.3164H137.672V50.1525C137.681 48.977 137.387 48.0586 136.79 47.3973C136.193 46.7361 135.353 46.4055 134.269 46.4055C133.562 46.4055 132.937 46.5616 132.396 46.8739C131.863 47.1769 131.445 47.6132 131.142 48.1826C130.848 48.752 130.697 49.4407 130.687 50.2489ZM158.504 62.7159C156.291 62.7159 154.38 62.2797 152.773 61.4072C151.175 60.5256 149.945 59.272 149.081 57.6465C148.227 56.0117 147.8 54.0694 147.8 51.8193C147.8 49.6336 148.232 47.7234 149.095 46.0887C149.958 44.4448 151.175 43.1682 152.746 42.259C154.316 41.3406 156.167 40.8814 158.297 40.8814C159.803 40.8814 161.181 41.1156 162.43 41.584C163.679 42.0524 164.758 42.7458 165.667 43.6641C166.576 44.5825 167.284 45.7167 167.789 47.0667C168.294 48.4076 168.546 49.9458 168.546 51.6816V53.3622H150.156V49.4499H162.278C162.269 48.7336 162.099 48.0953 161.769 47.5351C161.438 46.9749 160.984 46.5387 160.405 46.2264C159.836 45.905 159.179 45.7443 158.435 45.7443C157.682 45.7443 157.007 45.9142 156.41 46.254C155.813 46.5846 155.34 47.0392 154.991 47.6178C154.642 48.1871 154.458 48.8346 154.44 49.5601V53.5413C154.44 54.4046 154.61 55.1622 154.95 55.8143C155.29 56.4571 155.772 56.9577 156.396 57.3158C157.021 57.674 157.765 57.8531 158.628 57.8531C159.225 57.8531 159.767 57.7704 160.253 57.6051C160.74 57.4398 161.158 57.1964 161.507 56.875C161.856 56.5536 162.118 56.1587 162.292 55.6903L168.477 55.8694C168.22 57.2561 167.656 58.4638 166.783 59.4924C165.92 60.5118 164.786 61.3062 163.38 61.8756C161.975 62.4358 160.35 62.7159 158.504 62.7159ZM171.987 62.3164V41.157H178.53V45.0141H178.751C179.136 43.6182 179.766 42.5804 180.638 41.9008C181.51 41.2121 182.525 40.8677 183.682 40.8677C183.995 40.8677 184.316 40.8906 184.647 40.9365C184.977 40.9733 185.285 41.033 185.57 41.1156V46.9703C185.248 46.8601 184.826 46.7728 184.302 46.7086C183.788 46.6443 183.329 46.6121 182.925 46.6121C182.126 46.6121 181.405 46.7912 180.762 47.1494C180.128 47.4984 179.628 47.9897 179.26 48.6234C178.902 49.2479 178.723 49.9826 178.723 50.8275V62.3164H171.987ZM84.3253 81.1038V109.316H77.5063V81.1038H84.3253ZM95.3424 97.2489V109.316H88.6061V88.157H95.0118V92.0417H95.246C95.7143 90.7468 96.5133 89.732 97.6429 88.9973C98.7725 88.2534 100.118 87.8814 101.679 87.8814C103.167 87.8814 104.457 88.2167 105.55 88.8871C106.652 89.5483 107.506 90.4759 108.112 91.6698C108.728 92.8545 109.031 94.2412 109.022 95.83V109.316H102.285V97.1525C102.295 95.977 101.996 95.0586 101.39 94.3973C100.793 93.7361 99.9618 93.4055 98.8965 93.4055C98.1894 93.4055 97.5649 93.5616 97.023 93.8739C96.4904 94.1769 96.0771 94.6132 95.7832 95.1826C95.4985 95.752 95.3516 96.4407 95.3424 97.2489ZM125.136 88.157V93.1162H111.787V88.157H125.136ZM114.584 83.0875H121.32V102.663C121.32 103.076 121.384 103.411 121.513 103.668C121.65 103.916 121.848 104.095 122.105 104.206C122.362 104.307 122.67 104.357 123.028 104.357C123.285 104.357 123.556 104.334 123.841 104.288C124.135 104.233 124.355 104.187 124.502 104.151L125.521 109.013C125.2 109.105 124.745 109.22 124.158 109.358C123.579 109.495 122.886 109.583 122.078 109.619C120.498 109.693 119.143 109.509 118.014 109.068C116.893 108.618 116.035 107.92 115.438 106.975C114.85 106.029 114.565 104.839 114.584 103.407V83.0875ZM138.236 109.716C136.023 109.716 134.113 109.28 132.506 108.407C130.908 107.526 129.677 106.272 128.814 104.646C127.96 103.012 127.533 101.069 127.533 98.8193C127.533 96.6336 127.964 94.7234 128.828 93.0887C129.691 91.4448 130.908 90.1682 132.478 89.259C134.049 88.3406 135.899 87.8814 138.03 87.8814C139.536 87.8814 140.913 88.1156 142.162 88.584C143.411 89.0524 144.491 89.7458 145.4 90.6641C146.309 91.5825 147.016 92.7167 147.521 94.0667C148.026 95.4076 148.279 96.9458 148.279 98.6816V100.362H129.888V96.4499H142.011C142.002 95.7336 141.832 95.0953 141.501 94.5351C141.171 93.9749 140.716 93.5387 140.137 93.2264C139.568 92.905 138.911 92.7443 138.168 92.7443C137.414 92.7443 136.739 92.9142 136.143 93.254C135.546 93.5846 135.073 94.0392 134.724 94.6178C134.375 95.1871 134.191 95.8346 134.173 96.5601V100.541C134.173 101.405 134.342 102.162 134.682 102.814C135.022 103.457 135.504 103.958 136.129 104.316C136.753 104.674 137.497 104.853 138.36 104.853C138.957 104.853 139.499 104.77 139.986 104.605C140.473 104.44 140.891 104.196 141.24 103.875C141.589 103.554 141.85 103.159 142.025 102.69L148.21 102.869C147.953 104.256 147.388 105.464 146.516 106.492C145.652 107.512 144.518 108.306 143.113 108.876C141.708 109.436 140.082 109.716 138.236 109.716ZM151.719 109.316V88.157H158.263V92.0141H158.483C158.869 90.6182 159.498 89.5804 160.37 88.9008C161.243 88.2121 162.258 87.8677 163.415 87.8677C163.727 87.8677 164.049 87.8906 164.379 87.9365C164.71 87.9733 165.017 88.033 165.302 88.1156V93.9703C164.981 93.8601 164.558 93.7728 164.035 93.7086C163.521 93.6443 163.061 93.6121 162.657 93.6121C161.858 93.6121 161.137 93.7912 160.494 94.1494C159.861 94.4984 159.36 94.9897 158.993 95.6234C158.635 96.2479 158.456 96.9826 158.456 97.8275V109.316H151.719ZM174.783 97.2489V109.316H168.047V88.157H174.453V92.0417H174.687C175.155 90.7468 175.954 89.732 177.084 88.9973C178.213 88.2534 179.559 87.8814 181.12 87.8814C182.608 87.8814 183.898 88.2167 184.991 88.8871C186.093 89.5483 186.947 90.4759 187.553 91.6698C188.169 92.8545 188.472 94.2412 188.463 95.83V109.316H181.726V97.1525C181.735 95.977 181.437 95.0586 180.831 94.3973C180.234 93.7361 179.403 93.4055 178.337 93.4055C177.63 93.4055 177.006 93.5616 176.464 93.8739C175.931 94.1769 175.518 94.6132 175.224 95.1826C174.939 95.752 174.792 96.4407 174.783 97.2489ZM202.524 109.716C200.311 109.716 198.401 109.28 196.793 108.407C195.195 107.526 193.965 106.272 193.102 104.646C192.247 103.012 191.82 101.069 191.82 98.8193C191.82 96.6336 192.252 94.7234 193.115 93.0887C193.979 91.4448 195.195 90.1682 196.766 89.259C198.336 88.3406 200.187 87.8814 202.317 87.8814C203.824 87.8814 205.201 88.1156 206.45 88.584C207.699 89.0524 208.778 89.7458 209.687 90.6641C210.597 91.5825 211.304 92.7167 211.809 94.0667C212.314 95.4076 212.567 96.9458 212.567 98.6816V100.362H194.176V96.4499H206.299C206.289 95.7336 206.12 95.0953 205.789 94.5351C205.458 93.9749 205.004 93.5387 204.425 93.2264C203.856 92.905 203.199 92.7443 202.455 92.7443C201.702 92.7443 201.027 92.9142 200.43 93.254C199.833 93.5846 199.36 94.0392 199.011 94.6178C198.662 95.1871 198.479 95.8346 198.46 96.5601V100.541C198.46 101.405 198.63 102.162 198.97 102.814C199.31 103.457 199.792 103.958 200.416 104.316C201.041 104.674 201.785 104.853 202.648 104.853C203.245 104.853 203.787 104.77 204.274 104.605C204.76 104.44 205.178 104.196 205.527 103.875C205.876 103.554 206.138 103.159 206.312 102.69L212.498 102.869C212.241 104.256 211.676 105.464 210.803 106.492C209.94 107.512 208.806 108.306 207.401 108.876C205.996 109.436 204.37 109.716 202.524 109.716ZM227.951 88.157V93.1162H214.602V88.157H227.951ZM217.398 83.0875H224.135V102.663C224.135 103.076 224.199 103.411 224.328 103.668C224.465 103.916 224.663 104.095 224.92 104.206C225.177 104.307 225.485 104.357 225.843 104.357C226.1 104.357 226.371 104.334 226.656 104.288C226.95 104.233 227.17 104.187 227.317 104.151L228.336 109.013C228.015 109.105 227.56 109.22 226.972 109.358C226.394 109.495 225.701 109.583 224.892 109.619C223.313 109.693 221.958 109.509 220.829 109.068C219.708 108.618 218.849 107.92 218.252 106.975C217.665 106.029 217.38 104.839 217.398 103.407V83.0875Z"
        fill="black" />
</svg>