<svg width="305" height="160" viewBox="0 0 305 160" fill="none" xmlns="http://www.w3.org/2000/svg">
    <path
        d="M59.8906 23.3281V23.8994L60.4115 24.1533L60.932 23.8994V23.3281L60.4115 23.0742L59.8906 23.3281ZM68.0265 57.0345V58.431L69.2633 59.1291L70.4999 58.431V57.0345L69.2633 56.3361L68.0265 57.0345ZM58.7842 35.4522V34.5001L59.6303 33.9923L60.4765 34.5001V35.4522L59.6303 35.9601L58.7842 35.4522ZM89.375 92.4545V94.8032L91.4577 95.9459L93.5405 94.8032V92.4545L91.4577 91.3121L89.375 92.4545ZM83.8427 80.394V78.2991L85.6652 77.2836L87.4874 78.2991V80.394L85.6652 81.4095L83.8427 80.394ZM75.5116 66.556V68.3333L77.0736 69.2221L78.6358 68.3333V66.556L77.0736 65.6672L75.5116 66.556ZM61.583 46.878V45.6084L62.6894 44.9738L63.7959 45.6084V46.878L62.6894 47.5129L61.583 46.878ZM89.375 106.8V107.499L89.9608 107.816L90.5465 107.499V106.8L89.9608 106.483L89.375 106.8Z"
        fill="url(#paint0_linear)" />
    <path d="M84.688 116.704V116.259L85.0788 116.068L85.4697 116.259V116.704L85.0788 116.894L84.688 116.704Z"
        fill="url(#paint1_linear)" />
    <path
        d="M46.5482 37.1103V37.6816L47.0689 37.9356L47.5897 37.6816V37.1103L47.0689 36.8564L46.5482 37.1103ZM69.1334 113.029V113.6L69.6539 113.854L70.1748 113.6V113.029L69.6539 112.775L69.1334 113.029ZM66.9202 104.079V102.999L67.8965 102.428L68.8728 102.999V104.079L67.8965 104.65L66.9202 104.079ZM61.1927 92.0814V93.7318L62.6896 94.5569L64.1867 93.7318V92.0814L62.6896 91.2561L61.1927 92.0814ZM54.6188 83.7026V81.7981L56.3112 80.8461L58.0035 81.7981V83.7026L56.3112 84.6546L54.6188 83.7026ZM48.8263 71.1339V73.3557L50.7789 74.4349L52.7315 73.3557V71.1339L50.7789 70.0549L48.8263 71.1339ZM45.2465 61.1681V59.7716L46.4831 59.0734L47.7198 59.7716V61.1681L46.4831 61.8665L45.2465 61.1681ZM44.6606 47.5205V48.4727L45.5068 48.9805L46.3529 48.4727V47.5205L45.5068 47.0127L44.6606 47.5205Z"
        fill="url(#paint2_linear)" />
    <path
        d="M30.4066 61.2326V61.8038L30.9272 62.0577L31.4479 61.8038V61.2326L30.9272 60.9785L30.4066 61.2326ZM29.6255 70.5564V71.5087L30.4716 72.0164L31.3178 71.5087V70.5564L30.4716 70.0487L29.6255 70.5564ZM30.0811 82.1092V80.7127L31.3178 80.0144L32.5544 80.7127V82.1092L31.3178 82.8074L30.0811 82.1092ZM32.4242 89.7264V91.821L34.2466 92.8367L36.069 91.821V89.7264L34.2466 88.7107L32.4242 89.7264ZM37.7612 100.073V98.2955L39.3233 97.407L40.8854 98.2955V100.073L39.3233 100.962L37.7612 100.073ZM44.4651 106.42V107.817L45.7017 108.515L46.9383 107.817V106.42L45.7017 105.722L44.4651 106.42ZM51.6245 113.981V113.029L52.4707 112.521L53.3168 113.029V113.981L52.4707 114.489L51.6245 113.981ZM57.8727 119.63V120.075L58.2634 120.265L58.6538 120.075V119.63L58.2634 119.44L57.8727 119.63Z"
        fill="url(#paint3_linear)" />
    <path
        d="M70.6279 18.8847V19.456L71.1487 19.7099L71.6693 19.456V18.8847L71.1487 18.6309L70.6279 18.8847ZM73.4267 28.667V29.6192L74.2728 30.127L75.119 29.6192V28.667L74.2728 28.1592L73.4267 28.667ZM78.0476 39.324V37.5467L79.6098 36.658L81.1717 37.5467V39.324L79.6098 40.2127L78.0476 39.324ZM86.3137 46.4334V48.7819L88.3965 49.9246L90.4792 48.7819V46.4334L88.3965 45.2908L86.3137 46.4334ZM96.2066 57.6686V56.1452L97.5736 55.3834L98.9403 56.1452V57.6686L97.5736 58.4302L96.2066 57.6686ZM103.692 64.3336V64.9682L104.277 65.2858L104.863 64.9682V64.3336L104.277 64.0162L103.692 64.3336Z"
        fill="url(#paint4_linear)" />
    <path
        d="M66.1377 15.4581C65.6822 15.3946 65.2915 15.7755 65.2264 16.2198C61.3212 33.0412 62.8834 45.6733 84.362 67.2553C114.302 97.3435 89.3086 120.385 76.2261 128.638C76.0309 128.765 75.7053 129.145 75.9008 129.653C76.096 130.225 76.6816 130.225 76.8771 130.225C106.817 123.115 126.083 88.4567 96.5983 62.7484C80.3266 48.5295 67.9601 40.0237 66.9188 16.4103C66.9188 15.9025 66.5934 15.5216 66.1377 15.4581Z"
        fill="url(#paint5_linear)" />
    <path
        d="M58.3926 18.0033C58.0019 17.7494 57.4813 17.9398 57.2208 18.3207C44.5941 37.6812 47.1325 57.9939 59.1734 73.99C80.587 102.364 74.0784 120.829 69.0667 129.335C68.9366 129.525 68.8064 130.033 69.1968 130.351C69.5875 130.731 70.1081 130.541 70.3033 130.414C84.8178 118.925 92.4329 95.7626 72.7767 70.1815C62.0373 56.2165 49.8661 44.5366 58.783 19.0824C58.9132 18.765 58.783 18.2572 58.3926 18.0033Z"
        fill="url(#paint6_linear)" />
    <path
        d="M48.5004 25.5571C48.1099 25.3032 47.5894 25.4936 47.3289 25.811C32.5542 46.3775 31.1223 68.1432 37.5008 85.0985C46.4828 105.982 63.6656 116.068 64.8371 129.589C64.9025 129.906 65.0326 130.478 65.6833 130.478C66.3343 130.478 66.5295 129.97 66.5946 129.716C69.1981 109.086 56.1807 95.4384 49.6721 84.0124C41.7315 68.7779 36.8499 52.0905 48.891 26.5727C48.9561 26.2554 48.826 25.7475 48.5004 25.5571Z"
        fill="url(#paint7_linear)" />
    <path
        d="M58.1381 124.451C60.1556 127.185 57.451 130.146 54.1847 129.232C39.2826 125.061 22.0103 112.951 22.0103 87.1933C22.0103 79.0049 23.9629 71.0068 26.2409 64.0242C26.3711 63.5799 26.8267 63.2626 27.2823 63.3895C27.6728 63.453 27.9982 63.8338 27.9331 64.2783C25.5249 80.3379 27.087 98.7394 41.8617 110.356C49.1964 116.104 54.9446 120.124 58.1381 124.451Z"
        fill="url(#paint8_linear)" />
    <path
        d="M87.7458 38.5064C81.8311 32.0403 78.2237 26.0173 76.411 21.5619C75.6717 19.7449 77.3936 18.2373 79.0905 19.2147C90.2396 25.6366 100.565 41.8976 106.621 58.8189C106.686 58.9458 106.686 59.4535 106.165 59.5805C105.775 59.7074 105.449 59.3901 105.384 59.2631C101.869 51.9633 95.0354 46.441 87.7458 38.5064Z"
        fill="url(#paint9_linear)" />
    <path d="M163.183 51.33H160.84V38H155.503V35.8418H168.586V38H163.248V51.33H163.183Z" fill="black" />
    <path
        d="M181.668 51.33H179.325V44.919C179.325 43.7763 179.129 42.951 178.739 42.4433C178.413 41.9356 177.893 41.7452 177.242 41.7452C176.916 41.7452 176.526 41.8086 176.201 41.9356C175.81 42.0625 175.485 42.2529 175.159 42.5068C174.834 42.7606 174.573 43.078 174.313 43.3955C174.118 43.7129 173.923 44.0302 173.792 44.411V51.33H171.449V35.4609H173.792V41.3007C174.118 40.9199 174.508 40.6025 174.964 40.3486C175.81 39.8408 176.721 39.5869 177.697 39.5869C178.413 39.5869 178.999 39.7138 179.52 39.9677C180.041 40.2216 180.431 40.6025 180.756 41.0468C181.082 41.4911 181.277 41.999 181.407 42.6337C181.538 43.2049 181.603 43.9033 181.603 44.6014V51.33H181.668Z"
        fill="black" />
    <path
        d="M190.259 51.5828C189.413 51.5828 188.567 51.4559 187.851 51.1386C187.135 50.8213 186.484 50.3767 185.964 49.8056C185.443 49.2344 184.988 48.5995 184.727 47.9013C184.467 47.203 184.271 46.3779 184.271 45.5526C184.271 44.7275 184.402 43.9657 184.727 43.2676C185.053 42.5692 185.443 41.9345 185.964 41.3634C186.484 40.792 187.135 40.3477 187.851 40.0937C188.567 39.7764 189.348 39.5859 190.194 39.5859C191.04 39.5859 191.886 39.7764 192.602 40.0937C193.318 40.4111 193.969 40.8555 194.49 41.3634C195.011 41.9345 195.401 42.5692 195.727 43.2676C195.987 43.9657 196.182 44.7275 196.182 45.5526V45.8702C196.182 46.0606 196.182 46.124 196.117 46.251L195.987 46.5683H186.745C186.81 46.9491 186.94 47.2664 187.07 47.584C187.265 48.0283 187.591 48.4091 187.916 48.7264C188.242 49.044 188.632 49.2978 189.023 49.4882C189.674 49.7421 190.52 49.8056 191.301 49.6152C191.626 49.5517 191.886 49.4248 192.147 49.2344C192.407 49.1074 192.667 48.917 192.863 48.7264C193.058 48.536 193.188 48.2821 193.318 48.0283L193.449 47.7109L195.531 48.2821L195.336 48.7264C195.141 49.1709 194.88 49.5517 194.555 49.9325C194.23 50.2498 193.839 50.5674 193.384 50.8213C192.928 51.0751 192.407 51.2655 191.886 51.3925C191.431 51.4559 190.845 51.5828 190.259 51.5828ZM186.745 44.5371H193.839C193.774 44.2196 193.644 43.9022 193.514 43.5849C193.318 43.1406 193.058 42.7599 192.733 42.4423C192.407 42.1249 192.017 41.8711 191.626 41.7441C190.78 41.4268 189.804 41.4268 188.958 41.7441C188.502 41.9345 188.177 42.1884 187.851 42.4423C187.526 42.7599 187.265 43.1406 187.07 43.5214C186.875 43.9022 186.81 44.2196 186.745 44.5371Z"
        fill="black" />
    <path
        d="M139.036 81.7351C137.408 81.7351 135.846 81.3543 134.48 80.6562C133.113 79.9578 131.941 79.0058 130.9 77.9266C129.924 76.784 129.143 75.5144 128.557 74.0545C128.036 72.5945 127.776 71.1348 127.776 69.6114C127.776 68.2149 128.036 66.8184 128.492 65.4219C129.012 64.0254 129.794 62.7558 130.705 61.6766C131.681 60.5977 132.918 59.6455 134.284 59.0108C135.716 58.3124 137.343 57.9316 139.166 57.9316C141.314 57.9316 143.201 58.4394 144.698 59.3916C146.26 60.3438 147.432 61.6132 148.147 63.1366L148.343 63.5176L145.739 65.1045L145.479 64.66C145.154 63.9619 144.698 63.3907 144.243 62.9462C143.722 62.4385 143.201 62.0577 142.68 61.8038C142.095 61.4862 141.509 61.2958 140.923 61.1689C140.272 61.042 139.686 60.9785 139.101 60.9785C137.799 60.9785 136.627 61.2324 135.651 61.7403C134.675 62.2481 133.764 62.9462 133.113 63.7715C132.462 64.5966 131.941 65.5488 131.551 66.628C131.225 67.7069 131.03 68.7861 131.03 69.8652C131.03 71.0711 131.225 72.2137 131.681 73.2929C132.137 74.372 132.722 75.3875 133.438 76.2128C134.154 77.0379 135.065 77.6728 136.042 78.1805C137.539 78.8789 139.296 79.0693 141.118 78.6882C141.769 78.5613 142.355 78.3074 143.006 77.9901C143.592 77.6728 144.177 77.2283 144.698 76.784C145.219 76.2763 145.609 75.7048 145.935 75.0067L146.13 74.5624L148.863 75.9589L148.668 76.3397C148.278 77.2283 147.692 78.0536 146.976 78.7517C146.26 79.4501 145.479 79.9578 144.633 80.4658C143.787 80.91 142.876 81.2908 141.899 81.5447C140.923 81.6081 139.947 81.7351 139.036 81.7351Z"
        fill="black" />
    <path
        d="M159.473 81.8623C158.171 81.8623 156.999 81.6084 155.893 81.1641C154.787 80.6562 153.875 80.0215 153.094 79.1962C152.313 78.3711 151.728 77.4189 151.272 76.34C150.816 75.2608 150.621 74.1182 150.621 72.9121C150.621 71.7062 150.816 70.5001 151.272 69.421C151.728 68.3418 152.378 67.3898 153.094 66.5645C153.875 65.7394 154.852 65.0411 155.893 64.5968C156.999 64.0891 158.171 63.835 159.473 63.835C160.774 63.835 161.946 64.0891 163.052 64.5968C164.159 65.1045 165.07 65.7394 165.851 66.5645C166.632 67.3898 167.283 68.3418 167.674 69.421C168.129 70.5001 168.389 71.6428 168.389 72.9121C168.389 74.1182 168.194 75.2608 167.739 76.34C167.283 77.4189 166.697 78.3711 165.851 79.1962C165.07 80.0215 164.159 80.6562 163.052 81.1641C162.011 81.6084 160.774 81.8623 159.473 81.8623ZM159.473 66.628C158.692 66.628 157.976 66.8184 157.325 67.1359C156.609 67.4533 156.023 67.8975 155.503 68.4687C154.982 69.0402 154.591 69.7383 154.266 70.5001C153.94 71.2617 153.81 72.087 153.81 72.9121C153.81 73.8008 153.94 74.6259 154.266 75.3243C154.591 76.0224 154.982 76.7208 155.503 77.292C156.023 77.7999 156.609 78.2442 157.325 78.5615C158.692 79.1962 160.384 79.1962 161.686 78.5615C162.401 78.2442 162.987 77.8 163.508 77.2285C164.029 76.6573 164.419 76.0224 164.745 75.2608C165.07 74.499 165.2 73.6739 165.2 72.8486C165.2 72.0236 165.07 71.1983 164.745 70.4367C164.419 69.6748 164.029 68.9767 163.508 68.4687C162.987 67.8975 162.401 67.4533 161.686 67.1359C160.97 66.8184 160.254 66.628 159.473 66.628Z"
        fill="black" />
    <path
        d="M197.287 81.5449H194.098V71.8332C194.098 69.9921 193.838 68.6594 193.252 67.8341C192.731 67.0725 191.95 66.6914 190.844 66.6914C190.258 66.6914 189.672 66.8183 189.152 67.009C188.631 67.1994 188.175 67.5167 187.719 67.8975C187.264 68.2783 186.874 68.7863 186.548 69.294C186.223 69.8017 185.962 70.3732 185.767 71.0078V81.4815H182.578V71.8332C182.578 69.9921 182.317 68.5959 181.732 67.8341C181.211 67.0725 180.43 66.6914 179.323 66.6914C178.152 66.6914 177.176 67.0725 176.199 67.8975C175.288 68.6594 174.637 69.7383 174.247 71.0713V81.6084H171.058V64.0891H174.052V66.6914C174.637 65.9933 175.288 65.4221 176.004 64.9141C177.176 64.1525 178.543 63.7715 180.039 63.7715C181.601 63.7715 182.838 64.216 183.815 65.1045C184.465 65.676 184.986 66.4375 185.246 67.3263C186.874 64.9776 188.956 63.8352 191.625 63.8352C192.666 63.8352 193.512 64.0256 194.293 64.4064C195.009 64.7872 195.66 65.3584 196.051 66.0568C196.506 66.6914 196.832 67.5167 196.962 68.4687C197.157 69.3575 197.287 70.3732 197.287 71.4521V81.5449Z"
        fill="black" />
    <path
        d="M227.228 81.5449H224.039V71.8332C224.039 69.9921 223.779 68.6594 223.193 67.8341C222.672 67.0725 221.891 66.6914 220.785 66.6914C220.199 66.6914 219.613 66.8183 219.092 67.009C218.572 67.1994 218.116 67.5167 217.661 67.8975C217.205 68.2783 216.814 68.7863 216.489 69.294C216.164 69.8017 215.903 70.3732 215.708 71.0078V81.4815H212.519V71.8332C212.519 69.9921 212.258 68.5959 211.673 67.8341C211.152 67.0725 210.371 66.6914 209.264 66.6914C208.093 66.6914 207.117 67.0725 206.14 67.8975C205.229 68.6594 204.578 69.7383 204.188 71.0713V81.6084H200.999V64.0891H203.992V66.6914C204.578 65.9933 205.229 65.4221 205.945 64.9141C207.117 64.1525 208.484 63.7715 209.98 63.7715C211.543 63.7715 212.779 64.216 213.755 65.1045C214.406 65.676 214.927 66.4375 215.187 67.3263C216.814 64.9776 218.897 63.8352 221.566 63.8352C222.607 63.8352 223.453 64.0256 224.234 64.4064C224.95 64.7872 225.601 65.3584 225.992 66.0568C226.447 66.6914 226.773 67.5167 226.903 68.4687C227.098 69.3575 227.228 70.3732 227.228 71.4521V81.5449Z"
        fill="black" />
    <path
        d="M238.618 81.8623C237.316 81.8623 236.145 81.6084 235.038 81.1641C233.932 80.6562 233.02 80.0215 232.24 79.1962C231.458 78.3711 230.873 77.4189 230.417 76.34C229.961 75.2608 229.766 74.1182 229.766 72.9121C229.766 71.7062 229.961 70.5001 230.417 69.421C230.873 68.3418 231.523 67.3898 232.24 66.5645C233.02 65.7394 233.997 65.0411 235.038 64.5968C236.145 64.0891 237.316 63.835 238.618 63.835C239.92 63.835 241.091 64.0891 242.198 64.5968C243.304 65.1045 244.215 65.7394 244.996 66.5645C245.777 67.3898 246.428 68.3418 246.819 69.421C247.274 70.5001 247.535 71.6428 247.535 72.9121C247.535 74.1182 247.339 75.2608 246.884 76.34C246.428 77.4189 245.842 78.3711 244.996 79.1962C244.215 80.0215 243.304 80.6562 242.198 81.1641C241.156 81.6084 239.92 81.8623 238.618 81.8623ZM238.618 66.628C237.837 66.628 237.121 66.8184 236.47 67.1359C235.754 67.4533 235.168 67.8975 234.648 68.4687C234.127 69.0402 233.736 69.7383 233.411 70.5001C233.086 71.2617 232.955 72.087 232.955 72.9121C232.955 73.8008 233.086 74.6259 233.411 75.3243C233.736 76.0224 234.127 76.7208 234.648 77.292C235.168 77.7999 235.754 78.2442 236.47 78.5615C237.837 79.1962 239.529 79.1962 240.831 78.5615C241.547 78.2442 242.132 77.8 242.653 77.2285C243.174 76.6573 243.564 76.0224 243.89 75.2608C244.215 74.499 244.345 73.6739 244.345 72.8486C244.345 72.0236 244.215 71.1983 243.89 70.4367C243.564 69.6748 243.174 68.9767 242.653 68.4687C242.132 67.8975 241.547 67.4533 240.831 67.1359C240.115 66.8184 239.399 66.628 238.618 66.628Z"
        fill="black" />
    <path
        d="M265.499 81.5449H262.31V71.8332C262.31 69.9921 262.05 68.5959 261.464 67.834C260.943 67.0725 260.227 66.6914 259.121 66.6914C258.535 66.6914 257.949 66.8183 257.363 67.009C256.778 67.1994 256.192 67.5167 255.671 67.8975C255.151 68.2783 254.695 68.7863 254.304 69.294C253.914 69.8017 253.653 70.3732 253.458 70.9444V81.4815H250.269V64.0891H253.263V66.8183C253.849 66.1202 254.63 65.4856 255.476 64.9776C256.843 64.216 258.34 63.7715 259.967 63.7715C261.008 63.7715 261.854 63.9621 262.57 64.3429C263.286 64.7237 263.872 65.2315 264.328 65.9298C264.718 66.5645 265.043 67.3898 265.239 68.3418C265.434 69.2305 265.499 70.3097 265.499 71.3886V81.5449Z"
        fill="black" />
    <path
        d="M275.393 81.8622C274.026 81.8622 272.66 81.6084 271.358 81.2276C270.056 80.7831 268.885 80.1484 267.908 79.2596L267.583 79.0058L269.145 76.7842L269.536 77.1016C270.447 77.7997 271.358 78.3711 272.334 78.7519C273.245 79.1327 274.287 79.2596 275.328 79.2596C276.565 79.2596 277.607 79.0058 278.322 78.5615C279.039 78.1173 279.363 77.4824 279.363 76.6573C279.363 76.2763 279.299 76.0224 279.103 75.7685C278.909 75.5147 278.648 75.2608 278.258 75.0704C277.868 74.88 277.411 74.6894 276.76 74.499C276.109 74.3086 275.393 74.1182 274.547 73.9278C273.571 73.6739 272.66 73.4835 271.944 73.2294C271.163 72.9755 270.577 72.7217 270.056 72.4043C269.536 72.087 269.145 71.6425 268.82 71.1348C268.559 70.627 268.429 69.9921 268.429 69.2305C268.429 68.3418 268.624 67.5167 268.95 66.8183C269.34 66.1202 269.861 65.549 270.447 65.1045C271.098 64.6603 271.814 64.2795 272.595 64.0891C273.441 63.8352 274.287 63.7715 275.198 63.7715C276.565 63.7715 277.801 64.0256 278.909 64.4699C280.014 64.9141 280.925 65.4856 281.642 66.1837L281.966 66.501L280.274 68.5324L279.883 68.1514C279.299 67.5802 278.582 67.1359 277.737 66.8183C276.89 66.501 276.044 66.3741 275.133 66.3741C274.612 66.3741 274.091 66.4376 273.636 66.5645C273.18 66.6914 272.79 66.8183 272.464 67.009C272.139 67.1994 271.944 67.4533 271.748 67.834C271.553 68.1514 271.488 68.5324 271.488 68.9767C271.488 69.3575 271.553 69.6113 271.683 69.8017C271.814 69.9921 272.009 70.1828 272.269 70.3732C272.595 70.5636 272.985 70.6905 273.441 70.8809C273.961 71.0078 274.612 71.1982 275.328 71.3252C276.434 71.579 277.411 71.8331 278.258 72.087C279.103 72.3409 279.82 72.6582 280.404 73.039C281.055 73.42 281.511 73.8643 281.836 74.4355C282.162 75.0069 282.292 75.6416 282.292 76.4669C282.292 78.1173 281.642 79.5135 280.34 80.4657C279.233 81.418 277.477 81.8622 275.393 81.8622Z"
        fill="black" />
    <path
        d="M206.205 113.03C202.495 113.03 199.306 111.888 196.638 109.666L196.312 109.412L198.005 106.746L198.46 107.19C198.851 107.571 199.306 107.952 199.827 108.333C200.348 108.714 200.999 109.031 201.649 109.285C202.3 109.539 203.081 109.729 203.862 109.92C204.643 110.047 205.424 110.11 206.27 110.11C208.028 110.11 209.395 109.793 210.306 109.222C211.217 108.65 211.673 107.825 211.673 106.682C211.673 106.111 211.542 105.604 211.282 105.222C211.022 104.778 210.631 104.461 210.176 104.144C209.59 103.826 208.939 103.509 208.093 103.255C207.247 103.001 206.205 102.747 205.099 102.493C203.862 102.239 202.756 101.922 201.845 101.604C200.868 101.287 200.087 100.906 199.371 100.462C198.656 99.9541 198.135 99.3829 197.809 98.748C197.484 98.0499 197.289 97.2246 197.289 96.2726C197.289 95.1934 197.484 94.1777 197.94 93.3526C198.395 92.4639 199.046 91.7657 199.827 91.1946C200.608 90.6231 201.519 90.1788 202.561 89.925C203.602 89.6077 204.774 89.4805 206.01 89.4805C207.637 89.4805 209.069 89.7346 210.306 90.1788C211.542 90.6231 212.714 91.3215 213.755 92.1465L214.081 92.4004L212.388 95.0665L211.933 94.5587C211.347 93.9238 210.501 93.3526 209.525 92.9718C208.483 92.5908 207.312 92.3369 206.01 92.3369C204.123 92.3369 202.691 92.6543 201.845 93.3526C200.999 93.9873 200.608 94.8761 200.608 96.0187C200.608 96.5899 200.738 97.0976 200.933 97.4787C201.129 97.796 201.454 98.1133 201.91 98.3672C202.365 98.6845 203.016 98.9384 203.797 99.129C204.578 99.3829 205.554 99.5733 206.661 99.8271C207.898 100.081 209.069 100.398 210.045 100.716C211.087 101.033 211.998 101.478 212.714 101.985C213.43 102.493 214.081 103.128 214.471 103.826C214.862 104.588 215.057 105.477 215.057 106.556C215.057 107.635 214.862 108.65 214.406 109.412C213.951 110.237 213.3 110.935 212.519 111.443C211.738 111.951 210.827 112.395 209.72 112.649C208.614 112.903 207.442 113.03 206.205 113.03Z"
        fill="black" />
    <path
        d="M222.217 113.029C221.697 113.029 221.176 112.965 220.72 112.839C220.2 112.712 219.809 112.458 219.419 112.204C219.028 111.887 218.703 111.506 218.507 111.061C218.312 110.617 218.182 110.046 218.182 109.474V98.2391H215.839V95.6365H218.182V90.0508H221.371V95.5731H225.276V98.1757H221.371V108.776C221.371 109.22 221.567 109.538 221.827 109.728C222.152 109.919 222.477 110.046 222.933 110.046C223.519 110.046 223.975 109.982 224.43 109.792C225.016 109.538 225.211 109.411 225.276 109.411L225.797 109.094L226.708 111.76L226.318 111.95C226.187 112.013 225.992 112.077 225.732 112.204C225.471 112.331 225.211 112.394 224.821 112.521C224.495 112.648 224.105 112.712 223.649 112.839C223.128 113.029 222.673 113.029 222.217 113.029Z"
        fill="black" />
    <path
        d="M234.389 113.155C233.542 113.155 232.696 113.028 231.98 112.774C231.264 112.457 230.614 112.076 230.028 111.568C229.507 111.06 229.052 110.489 228.726 109.791C228.401 109.093 228.271 108.394 228.271 107.569C228.271 106.807 228.466 106.046 228.856 105.347C229.247 104.713 229.767 104.078 230.483 103.634C231.134 103.189 231.98 102.809 232.891 102.554C234.519 102.11 236.601 102.047 238.619 102.364C239.27 102.491 239.856 102.618 240.442 102.809V102.11C240.442 100.777 240.051 99.7617 239.335 98.9999C238.554 98.2383 237.513 97.8572 236.146 97.8572C235.365 97.8572 234.519 97.9844 233.673 98.3018C232.826 98.6191 231.915 99.0633 231.004 99.6983L230.548 100.016L229.312 97.7938L229.702 97.5399C231.98 96.0799 234.193 95.3184 236.341 95.3184C238.619 95.3184 240.376 95.953 241.678 97.1591C242.98 98.3652 243.631 100.079 243.631 102.237V109.6C243.631 109.981 243.761 109.981 243.956 109.981H244.477V112.711L244.086 112.774C243.696 112.838 243.37 112.901 243.175 112.901C242.524 112.901 241.938 112.711 241.548 112.393C241.158 112.013 240.897 111.568 240.897 110.933V110.807C240.246 111.441 239.465 111.949 238.554 112.33C237.122 112.901 235.82 113.155 234.389 113.155ZM236.146 104.522C234.714 104.522 233.477 104.84 232.631 105.411C231.785 105.919 231.395 106.617 231.395 107.506C231.395 107.95 231.46 108.331 231.655 108.712C231.85 109.093 232.11 109.41 232.371 109.727C232.696 109.981 233.087 110.235 233.477 110.362C233.933 110.553 234.389 110.616 234.909 110.616C236.016 110.616 236.992 110.425 237.838 110.045C238.749 109.664 239.4 109.156 239.856 108.521L239.921 108.458C240.051 108.331 240.181 108.14 240.246 108.014C240.311 107.823 240.376 107.696 240.376 107.569V105.221C239.791 105.03 239.14 104.84 238.489 104.713C237.708 104.586 236.927 104.522 236.146 104.522Z"
        fill="black" />
    <path
        d="M255.868 113.155C254.566 113.155 253.329 112.901 252.223 112.457C251.116 111.949 250.14 111.314 249.359 110.489C248.578 109.664 247.927 108.712 247.472 107.633C247.016 106.554 246.821 105.411 246.821 104.141C246.821 102.936 247.016 101.793 247.472 100.714C247.927 99.6348 248.513 98.6825 249.294 97.9207C250.075 97.0956 251.051 96.461 252.158 96.0165C253.264 95.5722 254.501 95.3184 255.803 95.3184C257.495 95.3184 258.992 95.6992 260.228 96.461C261.465 97.1591 262.441 98.1748 263.092 99.4441L263.353 99.9521L260.293 100.904L260.098 100.587C259.643 99.8252 259.057 99.2537 258.276 98.8095C257.495 98.3652 256.649 98.1748 255.673 98.1748C254.891 98.1748 254.11 98.3018 253.46 98.6191C252.809 98.9364 252.158 99.3807 251.637 99.8887C251.116 100.396 250.726 101.031 250.401 101.793C250.14 102.491 250.01 103.316 250.01 104.205C250.01 105.03 250.14 105.855 250.466 106.617C250.791 107.379 251.181 108.014 251.702 108.585C252.223 109.093 252.809 109.537 253.525 109.918C254.631 110.426 255.933 110.489 257.169 110.172C257.69 110.045 258.146 109.854 258.536 109.6C258.927 109.347 259.317 109.093 259.578 108.775C259.838 108.521 260.033 108.204 260.163 107.887L260.293 107.442L263.418 108.331L263.222 108.775C262.962 109.41 262.572 109.981 262.116 110.553C261.595 111.06 261.075 111.505 260.359 111.949C259.708 112.33 258.992 112.647 258.146 112.838C257.495 113.028 256.714 113.155 255.868 113.155Z"
        fill="black" />
    <path
        d="M281.835 112.839H278.257L272.203 104.714L269.144 107.443V112.839H265.955V89.0352H269.144V103.952L277.997 95.6366H281.901L274.416 102.809L281.835 112.839Z"
        fill="black" />
    <defs>
        <linearGradient id="paint0_linear" x1="75.7005" y1="47.1759" x2="75.7005" y2="107.901"
            gradientUnits="userSpaceOnUse">
            <stop stop-color="#67DE69" />
            <stop offset="1" stop-color="#0047B0" />
        </linearGradient>
        <linearGradient id="paint1_linear" x1="75.6901" y1="47.1039" x2="75.6901" y2="107.893"
            gradientUnits="userSpaceOnUse">
            <stop stop-color="#67DE69" />
            <stop offset="1" stop-color="#0047B0" />
        </linearGradient>
        <linearGradient id="paint2_linear" x1="57.6876" y1="58.5678" x2="57.6876" y2="113.829"
            gradientUnits="userSpaceOnUse">
            <stop stop-color="#67DE69" />
            <stop offset="1" stop-color="#0047B0" />
        </linearGradient>
        <linearGradient id="paint3_linear" x1="43.915" y1="78.1388" x2="43.915" y2="120.232"
            gradientUnits="userSpaceOnUse">
            <stop stop-color="#67DE69" />
            <stop offset="1" stop-color="#0047B0" />
        </linearGradient>
        <linearGradient id="paint4_linear" x1="87.857" y1="32.0159" x2="87.857" y2="66.1088"
            gradientUnits="userSpaceOnUse">
            <stop stop-color="#67DE69" />
            <stop offset="1" stop-color="#0047B0" />
        </linearGradient>
        <linearGradient id="paint5_linear" x1="87.2595" y1="48.1871" x2="87.2595" y2="130.515"
            gradientUnits="userSpaceOnUse">
            <stop stop-color="#67DE69" />
            <stop offset="1" stop-color="#0047B0" />
        </linearGradient>
        <linearGradient id="paint6_linear" x1="66.8803" y1="49.1405" x2="66.8803" y2="128.486"
            gradientUnits="userSpaceOnUse">
            <stop stop-color="#67DE69" />
            <stop offset="1" stop-color="#0047B0" />
        </linearGradient>
        <linearGradient id="paint7_linear" x1="49.5627" y1="54.049" x2="49.5627" y2="126.715"
            gradientUnits="userSpaceOnUse">
            <stop stop-color="#67DE69" />
            <stop offset="1" stop-color="#0047B0" />
        </linearGradient>
        <linearGradient id="paint8_linear" x1="41.4479" y1="82.354" x2="41.4479" y2="130.605"
            gradientUnits="userSpaceOnUse">
            <stop stop-color="#67DE69" />
            <stop offset="1" stop-color="#0047B0" />
        </linearGradient>
        <linearGradient id="paint9_linear" x1="90.614" y1="29.1148" x2="91.4583" y2="60.0049"
            gradientUnits="userSpaceOnUse">
            <stop stop-color="#67DE69" />
            <stop offset="1" stop-color="#0047B0" />
        </linearGradient>
    </defs>
</svg>