<svg viewBox="0 0 23 22" fill="none" xmlns="http://www.w3.org/2000/svg">
    <path
        d="M22.4316 11C22.4316 16.8 17.7401 21.5 11.955 21.5C6.17002 21.5 1.47852 16.8 1.47852 11C1.47852 5.2 6.17002 0.5 11.955 0.5C17.7401 0.5 22.4316 5.2 22.4316 11Z"
        fill="white" stroke="black" />
    <path
        d="M14.5742 10.6367C14.5742 11.3574 14.3193 11.9727 13.8095 12.4824C13.3056 12.9863 12.6962 13.2383 11.9814 13.2383C11.2607 13.2383 10.6455 12.9834 10.1357 12.4736C9.63179 11.9639 9.37984 11.3516 9.37984 10.6367C9.37984 9.92188 9.63179 9.3125 10.1357 8.80859C10.6455 8.29883 11.2607 8.04395 11.9814 8.04395C12.6962 8.04395 13.3056 8.2959 13.8095 8.7998C14.3193 9.30371 14.5742 9.91602 14.5742 10.6367Z"
        fill="black" />
</svg>