<svg width="306" height="161" viewBox="0 0 306 161" fill="none" xmlns="http://www.w3.org/2000/svg">
    <path
        d="M151.094 87.0527L161.001 61.2558H164.679L175.237 87.0527H171.348L168.339 79.2397H157.552L154.719 87.0527H151.094ZM158.538 76.4594H167.283L164.591 69.3151C163.77 67.1448 163.16 65.3617 162.761 63.9657C162.432 65.6198 161.969 67.2622 161.371 68.8928L158.538 76.4594ZM177.525 87.0527V68.3649H180.375V71.198C181.103 69.8724 181.771 68.9984 182.381 68.5761C183.003 68.1537 183.684 67.9426 184.423 67.9426C185.49 67.9426 186.575 68.2828 187.678 68.9632L186.587 71.9019C185.813 71.4443 185.038 71.2156 184.264 71.2156C183.572 71.2156 182.95 71.4267 182.399 71.8491C181.848 72.2597 181.455 72.8345 181.22 73.5736C180.868 74.6998 180.692 75.9315 180.692 77.2689V87.0527H177.525ZM201.755 84.7475C200.582 85.7447 199.45 86.4486 198.359 86.8592C197.28 87.2698 196.119 87.4751 194.875 87.4751C192.822 87.4751 191.244 86.9765 190.142 85.9793C189.039 84.9704 188.487 83.6859 188.487 82.1256C188.487 81.2106 188.693 80.3777 189.103 79.6269C189.526 78.8643 190.071 78.2543 190.74 77.7968C191.42 77.3393 192.183 76.9932 193.027 76.7586C193.649 76.5943 194.588 76.436 195.843 76.2835C198.4 75.9785 200.283 75.6148 201.492 75.1925C201.503 74.7584 201.509 74.4827 201.509 74.3654C201.509 73.075 201.21 72.1658 200.612 71.6379C199.802 70.9223 198.6 70.5645 197.004 70.5645C195.514 70.5645 194.412 70.8284 193.696 71.3564C192.992 71.8725 192.47 72.7934 192.13 74.1191L189.033 73.6967C189.315 72.3711 189.778 71.3036 190.423 70.4941C191.068 69.6729 192.001 69.0453 193.221 68.6112C194.441 68.1655 195.855 67.9426 197.462 67.9426C199.057 67.9426 200.354 68.1303 201.351 68.5057C202.348 68.8811 203.081 69.3562 203.55 69.931C204.02 70.4941 204.348 71.2097 204.536 72.0778C204.641 72.6175 204.694 73.5912 204.694 74.9989V79.2221C204.694 82.1667 204.759 84.0319 204.888 84.8179C205.028 85.5922 205.298 86.3371 205.697 87.0527H202.389C202.06 86.3958 201.849 85.6274 201.755 84.7475ZM201.492 77.6736C200.342 78.1429 198.617 78.5417 196.318 78.8702C195.016 79.0579 194.095 79.2691 193.555 79.5037C193.016 79.7383 192.599 80.0844 192.306 80.5419C192.013 80.9877 191.866 81.4863 191.866 82.0376C191.866 82.8823 192.183 83.5862 192.816 84.1493C193.462 84.7124 194.4 84.9939 195.632 84.9939C196.852 84.9939 197.937 84.73 198.887 84.202C199.837 83.6624 200.535 82.9292 200.981 82.0024C201.321 81.2868 201.492 80.231 201.492 78.835V77.6736ZM209.041 88.6013L212.12 89.0588C212.249 90.009 212.607 90.7011 213.193 91.1352C213.979 91.7218 215.053 92.015 216.414 92.015C217.88 92.015 219.012 91.7218 219.81 91.1352C220.608 90.5486 221.147 89.7275 221.429 88.6716C221.593 88.0264 221.669 86.6715 221.658 84.6068C220.273 86.2374 218.549 87.0527 216.484 87.0527C213.915 87.0527 211.926 86.126 210.519 84.2724C209.111 82.4189 208.407 80.1958 208.407 77.6032C208.407 75.8201 208.73 74.1777 209.375 72.6761C210.02 71.1628 210.953 69.9955 212.173 69.1743C213.405 68.3532 214.848 67.9426 216.502 67.9426C218.707 67.9426 220.525 68.8341 221.957 70.6173V68.3649H224.878V84.5188C224.878 87.4281 224.579 89.487 223.98 90.6953C223.394 91.9153 222.455 92.8773 221.165 93.5812C219.886 94.285 218.308 94.637 216.431 94.637C214.202 94.637 212.402 94.1325 211.029 93.1236C209.656 92.1265 208.994 90.619 209.041 88.6013ZM211.663 77.3745C211.663 79.8263 212.149 81.6153 213.123 82.7415C214.097 83.8677 215.317 84.4308 216.783 84.4308C218.238 84.4308 219.458 83.8736 220.443 82.7591C221.429 81.6329 221.921 79.8732 221.921 77.4801C221.921 75.1925 221.411 73.468 220.391 72.3066C219.382 71.1452 218.162 70.5645 216.73 70.5645C215.323 70.5645 214.126 71.1393 213.141 72.289C212.155 73.4269 211.663 75.1221 211.663 77.3745ZM228.503 77.7088C228.503 74.2481 229.465 71.6848 231.389 70.019C232.996 68.6347 234.955 67.9426 237.266 67.9426C239.835 67.9426 241.935 68.7872 243.566 70.4765C245.196 72.1541 246.012 74.4769 246.012 77.4449C246.012 79.8498 245.648 81.7444 244.921 83.1286C244.205 84.5012 243.155 85.5687 241.771 86.3313C240.398 87.0938 238.897 87.4751 237.266 87.4751C234.65 87.4751 232.532 86.6363 230.913 84.9587C229.306 83.2811 228.503 80.8645 228.503 77.7088ZM231.758 77.7088C231.758 80.102 232.28 81.8969 233.324 83.0934C234.368 84.2783 235.682 84.8707 237.266 84.8707C238.838 84.8707 240.146 84.2724 241.19 83.0758C242.234 81.8793 242.756 80.0551 242.756 77.6032C242.756 75.2922 242.228 73.5442 241.172 72.3594C240.128 71.1628 238.826 70.5645 237.266 70.5645C235.682 70.5645 234.368 71.1569 233.324 72.3418C232.28 73.5266 231.758 75.3156 231.758 77.7088ZM249.742 87.0527V68.3649H252.593V71.022C253.965 68.969 255.948 67.9426 258.54 67.9426C259.667 67.9426 260.699 68.1479 261.638 68.5585C262.588 68.9573 263.297 69.4852 263.767 70.1422C264.236 70.7991 264.564 71.5792 264.752 72.4826C264.869 73.0691 264.928 74.0956 264.928 75.562V87.0527H261.761V75.6852C261.761 74.3947 261.638 73.4328 261.391 72.7993C261.145 72.1541 260.705 71.6438 260.071 71.2684C259.45 70.8812 258.716 70.6877 257.872 70.6877C256.523 70.6877 255.355 71.1159 254.37 71.9722C253.396 72.8286 252.909 74.4534 252.909 76.8466V87.0527H249.742Z"
        fill="#3B3B3B" />
    <path opacity="0.5" fill-rule="evenodd" clip-rule="evenodd"
        d="M120.885 36.1942C119.8 36.1007 118.701 36.053 117.592 36.053C96.8359 36.053 80.0105 52.7521 80.0105 73.3518C80.0105 93.9512 96.8359 110.65 117.592 110.65C119.034 110.65 120.457 110.57 121.856 110.413C111.602 121.684 96.6834 128.78 80.0758 128.78C49.1512 128.78 24.0815 104.175 24.0815 73.8238C24.0815 43.4722 49.1512 18.8672 80.0758 18.8672C96.1663 18.8672 110.671 25.5285 120.885 36.1942Z"
        fill="url(#paint0_linear)" />
    <mask id="mask0" mask-type="alpha" maskUnits="userSpaceOnUse" x="23" y="18" width="116" height="111">
        <path fill-rule="evenodd" clip-rule="evenodd"
            d="M136.206 87.6442C137.463 83.0938 138.133 78.313 138.133 73.3819C138.133 42.8027 112.362 18.0137 80.5718 18.0137C48.7816 18.0137 23.0107 42.8027 23.0107 73.3819C23.0107 103.961 48.7816 128.75 80.5718 128.75C82.8596 128.75 85.1159 128.622 87.3336 128.372C77.0168 122.693 70.0644 112.001 70.0644 99.7479C70.0644 81.5458 85.4045 66.7904 104.327 66.7904C118.807 66.7904 131.19 75.4308 136.206 87.6442Z"
            fill="url(#paint1_linear)" />
    </mask>
    <g mask="url(#mask0)">
        <path
            d="M83.13 44.0229C70.8503 30.7195 66.7853 17.7289 66.5009 12.8965L39.2126 14.602C27.8424 19.2923 4.84664 28.8861 3.82316 29.7388C2.54391 30.8048 -8.54187 69.6063 -9.39463 71.0985C-10.0769 72.2924 11.2137 107.981 21.9444 125.676L65.8615 136.763L104.875 133.565L128.966 113.311L109.779 71.7383C105.444 67.6164 95.4097 57.3263 83.13 44.0229Z"
            fill="url(#paint2_linear)" />
        <path fill-rule="evenodd" clip-rule="evenodd"
            d="M108.851 71.2019C107.124 69.3694 105.109 67.4205 102.767 65.3258C95.9773 59.2533 88.1762 53.7817 81.1748 48.8704C73.4077 43.4225 66.6245 38.6644 63.2974 34.5425C73.1958 41.6131 81.306 45.7658 86.9703 48.3163C86.8278 48.1653 86.685 48.0137 86.5412 47.8612C81.4576 42.5314 77.6808 37.7211 74.8769 33.4852C70.6204 27.1683 66.8602 19.6092 65.8468 11.3135C83.002 13.948 93.6431 18.4185 100.685 22.643C102.452 23.6837 104.128 24.8062 105.727 26.0202C106.76 26.7886 107.686 27.5254 108.527 28.2159C109.206 28.7735 109.733 29.2942 110.131 29.7792C112.769 32.3033 115.191 35.1521 117.465 38.3768C126.189 50.7482 127.119 61.6476 126.493 65.5511L123.275 67.6964C123.315 68.023 123.359 68.3635 123.405 68.7167C124.049 73.6838 125.029 81.2281 118.269 89.2394C118.269 89.2352 118.269 89.2313 118.268 89.2274L118.253 89.3102C118.062 85.1496 116.655 80.9891 112.93 76.0061C111.794 74.534 110.445 72.9586 108.851 71.2019ZM115.065 59.7318C115.471 59.8224 116.92 60.11 119.028 59.8354C120.655 61.9885 121.841 64.536 121.841 64.536C120.793 58.6385 117.466 52.5524 112.141 47.5155C112.141 47.5155 110.83 52.9238 115.065 59.7318Z"
            fill="url(#paint3_linear)" />
        <path fill-rule="evenodd" clip-rule="evenodd"
            d="M123.404 68.7175C123.358 68.364 123.314 68.0238 123.275 67.6972L126.492 65.5519C127.118 61.6485 126.189 50.7491 117.464 38.3776C112.876 31.7926 100.398 18.6709 73.7494 18.6709C44.9851 20.3764 21.9468 46.5827 23.0131 74.2981C36.4867 79.7558 58.8447 75.9079 67.4966 71.809C84.5876 63.7282 99.2011 65.1688 104.466 66.8373C113.531 75.8079 117.768 81.2305 118.269 89.2399C125.028 81.2285 124.049 73.6846 123.404 68.7175ZM119.028 59.8358C116.919 60.1108 115.471 59.8229 115.065 59.7326C110.829 52.9246 112.14 47.516 112.14 47.516C117.465 52.5532 120.793 58.6393 121.841 64.5365C121.841 64.5365 120.654 61.9893 119.028 59.8358Z"
            fill="url(#paint4_linear)" fill-opacity="0.5" />
    </g>
    <defs>
        <linearGradient id="paint0_linear" x1="63.2971" y1="59.8487" x2="66.4582" y2="103.508"
            gradientUnits="userSpaceOnUse">
            <stop stop-color="#1400FF" stop-opacity="0" />
            <stop offset="1" stop-color="#01FF85" stop-opacity="0.76" />
        </linearGradient>
        <linearGradient id="paint1_linear" x1="7.85377" y1="69.1353" x2="140.833" y2="129.146"
            gradientUnits="userSpaceOnUse">
            <stop stop-color="#1400FF" />
            <stop offset="1" stop-color="#01FF85" stop-opacity="0.76" />
        </linearGradient>
        <linearGradient id="paint2_linear" x1="21.5179" y1="24.8353" x2="84.2111" y2="125.991"
            gradientUnits="userSpaceOnUse">
            <stop stop-color="#1400FF" />
            <stop offset="1" stop-color="#01FF85" stop-opacity="0.76" />
        </linearGradient>
        <linearGradient id="paint3_linear" x1="94.973" y1="11.3135" x2="119.67" y2="87.7991"
            gradientUnits="userSpaceOnUse">
            <stop stop-color="#2DE0D5" />
            <stop offset="1" stop-color="#88FFDA" />
        </linearGradient>
        <linearGradient id="paint4_linear" x1="7.84056" y1="83.6452" x2="110.606" y2="121.351"
            gradientUnits="userSpaceOnUse">
            <stop stop-color="#1400FF" />
            <stop offset="1" stop-color="#01FF85" stop-opacity="0.76" />
        </linearGradient>
    </defs>
</svg>